<svg width="88" height="88" viewBox="0 0 88 88" fill="none" xmlns="http://www.w3.org/2000/svg">
<path d="M44 4.68085C65.6817 4.68085 83.3191 22.3183 83.3191 44C83.3191 65.6817 65.6817 83.3191 44 83.3191C22.3183 83.3191 4.68085 65.6817 4.68085 44C4.68085 22.3183 22.3183 4.68085 44 4.68085ZM44 0C19.7017 0 0 19.7017 0 44C0 68.2983 19.7017 88 44 88C68.2983 88 88 68.2983 88 44C88 19.7017 68.2983 0 44 0Z" fill="url(#paint0_linear)"/>
<path d="M43.9998 77.6041C62.5587 77.6041 77.6037 62.5592 77.6037 44.0003C77.6037 25.4414 62.5587 10.3965 43.9998 10.3965C25.4409 10.3965 10.396 25.4414 10.396 44.0003C10.396 62.5592 25.4409 77.6041 43.9998 77.6041Z" fill="#F3C360"/>
<path d="M65.0405 38.2898H60.4627C58.1737 32.3919 52.449 28.2119 45.7414 28.2119H31.8533V38.2898H27.4346V41.6506H31.8533V46.1302H27.4346V49.4911H31.8533V59.7936H45.7461C52.538 59.7936 58.3235 55.506 60.5563 49.4911H65.0452V46.1302H61.3941C61.4878 45.4328 61.5393 44.726 61.5393 44.0004C61.5393 43.2 61.4784 42.4136 61.3661 41.6506H65.0452V38.2898H65.0405ZM35.2141 31.5681H45.7461C50.5486 31.5681 54.7146 34.297 56.7835 38.2851H35.2141V31.5681ZM45.7461 56.4328H35.2141V49.4911H56.9005C54.869 53.6009 50.6376 56.4328 45.7461 56.4328ZM58.1737 44.0004C58.1737 44.726 58.1082 45.4374 57.9865 46.1302H35.2141V41.6506H57.949C58.0941 42.4089 58.1737 43.1953 58.1737 44.0004Z" fill="white"/>
<defs>
<linearGradient id="paint0_linear" x1="67.6152" y1="8.29933" x2="20.7493" y2="79.1496" gradientUnits="userSpaceOnUse">
<stop stop-color="#AD569E"/>
<stop offset="1" stop-color="#3BB7C3"/>
</linearGradient>
</defs>
</svg>
