<svg width="88" height="88" viewBox="0 0 88 88" fill="none" xmlns="http://www.w3.org/2000/svg">
<path d="M44 4.68085C65.6817 4.68085 83.3191 22.3183 83.3191 44C83.3191 65.6817 65.6817 83.3191 44 83.3191C22.3183 83.3191 4.68085 65.6817 4.68085 44C4.68085 22.3183 22.3183 4.68085 44 4.68085ZM44 0C19.7017 0 0 19.7017 0 44C0 68.2983 19.7017 88 44 88C68.2983 88 88 68.2983 88 44C88 19.7017 68.2983 0 44 0Z" fill="url(#paint0_linear)"/>
<path d="M43.0589 35.6729V56.1282L23.2729 44.8333L43.0589 35.6729Z" fill="#343535"/>
<path d="M43.0595 10.916V33.6088L23.1846 42.8067L43.0595 10.916Z" fill="#828384"/>
<path d="M43.064 59.311V78.1982L22.2764 47.4497L43.064 59.311Z" fill="#828384"/>
<path d="M64.7311 44.8333L44.9312 56.1282V35.6729L64.7311 44.8333Z" fill="#131313"/>
<path d="M64.8201 42.816L44.9312 33.6088V10.916L64.8201 42.816Z" fill="#2F3030"/>
<path d="M65.7237 47.4497L44.936 78.1982V59.311L65.7237 47.4497Z" fill="#2F3030"/>
<defs>
<linearGradient id="paint0_linear" x1="67.6152" y1="8.29933" x2="20.7493" y2="79.1496" gradientUnits="userSpaceOnUse">
<stop stop-color="#AD569E"/>
<stop offset="1" stop-color="#3BB7C3"/>
</linearGradient>
</defs>
</svg>
