<?xml version="1.0" encoding="UTF-8"?>
<svg width="16px" height="16px" viewBox="0 0 16 16" version="1.1" xmlns="http://www.w3.org/2000/svg" xmlns:xlink="http://www.w3.org/1999/xlink">
    <title>Group 66</title>
    <g id="页面-1" stroke="none" stroke-width="1" fill="none" fill-rule="evenodd">
        <g id="历史交易记录" transform="translate(-883.000000, -866.000000)">
            <g id="Group-66" transform="translate(883.000000, 866.000000)">
                <g id="arrowleft" transform="translate(1.968750, 2.875000)" fill="#2FD8CA" fill-rule="nonzero">
                    <path d="M11.35625,4.4375 L2.3921875,4.4375 C2.390625,4.4375 2.3890625,4.434375 2.390625,4.434375 L5.771875,1.184375 C6.0453125,0.921875 6.0546875,0.4859375 5.790625,0.2125 C5.528125,-0.0609375 5.0921875,-0.0703125 4.81875,0.19375 L0.215625,4.6171875 C0.08125,4.746875 0.0046875,4.9265625 0.0046875,5.1125 C0.0046875,5.3 0.08125,5.478125 0.215625,5.6078125 L4.84375,10.05625 C4.9765625,10.184375 5.1484375,10.2484375 5.3203125,10.2484375 C5.5015625,10.2484375 5.68125,10.178125 5.815625,10.0375 C6.078125,9.7640625 6.0703125,9.328125 5.796875,9.065625 L2.415625,5.815625 C2.4140625,5.8140625 2.415625,5.8125 2.4171875,5.8125 L11.371875,5.8125 C11.7375,5.8125 12.0359375,5.5265625 12.0578125,5.1671875 C12.08125,4.76875 11.7546875,4.4375 11.35625,4.4375 Z" id="Shape"></path>
                </g>
                <rect id="Rectangle-37-Copy-2" x="0" y="0" width="16" height="16"></rect>
            </g>
        </g>
    </g>
</svg>