<?xml version="1.0" encoding="UTF-8"?>
<svg width="137px" height="160px" viewBox="0 0 137 160" version="1.1" xmlns="http://www.w3.org/2000/svg" xmlns:xlink="http://www.w3.org/1999/xlink">
    <title>编组 10</title>
    <g id="polybridge-NFT备份-2" stroke="none" stroke-width="1" fill="none" fill-rule="evenodd" opacity="0.0290667725">
        <g id="2-NFT页面" transform="translate(-714.000000, -383.000000)" fill="#FFFFFF">
            <g id="筛选备份" transform="translate(660.000000, 300.000000)">
                <g id="编组-9" transform="translate(20.000000, 60.000000)">
                    <g id="位图" transform="translate(10.000000, 10.000000)">
                        <g id="编组-10" transform="translate(24.789764, 13.000000)">
                            <path d="M67.7424316,0 L135.484863,40 L135.484863,120 L67.7424316,160 L-2.55795385e-13,120 L-2.64677169e-13,40 L67.7424316,0 Z M67.60416,14.2222222 L11.5284805,47.3333333 L11.5284805,113.555556 L67.60416,146.666667 L123.679839,113.555556 L123.679839,47.3333333 L67.60416,14.2222222 Z" id="形状结合"></path>
                            <path d="M32.8662355,97 L32.8662355,76.12 L46.4502355,97 L52.3542355,97 L52.3542355,62.824 L45.6822355,62.824 L45.6822355,83.704 L32.1462355,62.824 L26.1942355,62.824 L26.1942355,97 L32.8662355,97 Z M67.0422355,97 L67.0422355,83.128 L80.5782355,83.128 L80.5782355,77.176 L67.0422355,77.176 L67.0422355,68.776 L82.8822355,68.776 L82.8822355,62.824 L60.3702355,62.824 L60.3702355,97 L67.0422355,97 Z M101.746236,97 L101.746236,68.776 L110.674236,68.776 L110.674236,62.824 L86.1462355,62.824 L86.1462355,68.776 L95.0742355,68.776 L95.0742355,97 L101.746236,97 Z" id="NFT" fill-rule="nonzero"></path>
                        </g>
                    </g>
                </g>
            </g>
        </g>
    </g>
</svg>