<?xml version="1.0" standalone="no"?>
<!DOCTYPE svg PUBLIC "-//W3C//DTD SVG 20010904//EN"
 "http://www.w3.org/TR/2001/REC-SVG-20010904/DTD/svg10.dtd">
<svg version="1.0" xmlns="http://www.w3.org/2000/svg"
 width="280.000000pt" height="280.000000pt" viewBox="0 0 280.000000 280.000000"
 preserveAspectRatio="xMidYMid meet">

<g transform="translate(0.000000,280.000000) scale(0.100000,-0.100000)"
fill="#000000" stroke="none">
<path d="M803 2437 l-592 -332 0 -710 0 -710 595 -334 c519 -291 598 -332 617
-323 12 6 278 159 592 340 l570 330 3 153 2 154 -279 195 c-154 107 -280 197
-281 200 0 3 125 86 278 186 l277 180 2 170 3 169 -587 330 c-322 182 -591
331 -597 332 -6 1 -277 -147 -603 -330z m570 -135 c-4 -2 -177 -103 -383 -226
l-375 -222 -3 -461 -2 -460 385 -219 385 -218 0 -137 0 -137 -517 282 -518
282 -3 605 -2 604 517 292 518 291 3 -136 c1 -75 -1 -138 -5 -140z m215 -267
c89 -55 161 -102 161 -105 0 -3 -87 -66 -194 -140 l-194 -135 0 -270 -1 -270
196 -129 c108 -70 192 -132 187 -136 -20 -17 -322 -200 -331 -200 -6 0 -149
84 -318 188 l-309 187 0 364 0 364 310 194 c171 106 315 192 321 190 5 -1 83
-47 172 -102z"/>
</g>
</svg>
