<?xml version="1.0" encoding="UTF-8"?>
<svg width="24px" height="24px" viewBox="0 0 40 40" version="1.1" xmlns="http://www.w3.org/2000/svg" xmlns:xlink="http://www.w3.org/1999/xlink">
    <title>Binance Smart Chain</title>
    <defs>
        <circle id="path-1" cx="20" cy="20" r="20"></circle>
    </defs>
    <g id="页面-1" stroke="none" stroke-width="1" fill="none" fill-rule="evenodd">
        <g id="画板" transform="translate(-160.000000, -30.000000)">
            <g id="Binance-Smart-Chain" transform="translate(160.000000, 30.000000)">
                <mask id="mask-2" fill="white">
                    <use xlink:href="#path-1"></use>
                </mask>
                <use id="蒙版" fill="#F3BA2F" xlink:href="#path-1"></use>
                <path d="M15.3866904,18.1059176 L20,13.492608 L24.6320629,18.1059176 L27.2950303,15.4429502 L20,8.12916667 L12.7049697,15.4241969 L15.3866904,18.1059176 Z M8.12916667,20 L10.8108873,17.3182794 L13.492608,20 L10.8108873,22.6817206 L8.12916667,20 Z M15.3866904,21.8940824 L20,26.507392 L24.6320629,21.8940824 L27.3137836,24.5758031 L20.0187533,31.8708333 L12.723723,24.5758031 L15.3866904,21.8940824 Z M26.507392,20 L29.1891127,17.3182794 L31.8708333,20 L29.1891127,22.6817206 L26.507392,20 Z" id="形状" fill="#FFFFFF" fill-rule="nonzero" mask="url(#mask-2)"></path>
                <polygon id="路径" fill="#FFFFFF" fill-rule="nonzero" mask="url(#mask-2)" points="22.7192272 20 20 17.2807728 17.9933979 19.2873749 17.7683583 19.5124144 17.2807728 20 20 22.7192272"></polygon>
            </g>
        </g>
    </g>
</svg>