<?xml version="1.0" encoding="UTF-8"?>
<svg width="24px" height="24px" viewBox="0 0 24 24" version="1.1" xmlns="http://www.w3.org/2000/svg" xmlns:xlink="http://www.w3.org/1999/xlink">
    <title>Group Copy 3</title>
    <defs>
        <polygon id="path-1" points="0 0 12 0 12 17 0 17"></polygon>
    </defs>
    <g id="Swap" stroke="none" stroke-width="1" fill="none" fill-rule="evenodd">
        <g id="Group-Copy-3">
            <g id="neo-copy-2" fill="#FFFFFF">
                <g id="编组">
                    <circle id="椭圆形" cx="12" cy="12" r="12"></circle>
                </g>
            </g>
            <g id="Group-3" transform="translate(6.000000, 3.000000)">
                <mask id="mask-2" fill="white">
                    <use xlink:href="#path-1"></use>
                </mask>
                <g id="Clip-2"></g>
                <path d="M9.24975037,6.80764029 C8.86175078,8.47137997 6.46672945,7.6261508 5.68980132,7.41888859 L6.37501877,4.47814626 C7.15194689,4.68540847 9.65393692,5.07226976 9.24986649,6.80764029 L9.24975037,6.80764029 Z M8.82410504,11.5532465 C8.39876163,13.3823188 5.52121995,12.3935793 4.58827452,12.1456551 L5.34404578,8.90320317 C6.27692155,9.15244474 9.26863129,9.64570842 8.82417471,11.5532465 L8.82410504,11.5532465 Z M11.9686504,6.83416011 C12.2182828,5.04783773 10.9475243,4.08763135 9.20989837,3.44710437 L9.77360903,1.02738827 L8.39729853,0.660360918 L7.84856721,3.01637477 C7.48671759,2.91978994 7.11516043,2.82877252 6.74585598,2.73857531 L7.2985818,0.36702735 L5.92313058,0 L5.35911801,2.41892076 C5.05971712,2.34594776 4.76563448,2.27384466 4.48030719,2.19786426 L4.48190963,2.19028362 L2.58396995,1.68302682 L2.21782394,3.25622132 C2.21782394,3.25622132 3.23895004,3.50673047 3.2174216,3.52216515 C3.77474572,3.67101914 3.8755369,4.06585875 3.85879256,4.37882742 L3.21667844,7.13542229 L3.21430962,7.14606004 L2.31427227,11.0076888 C2.24615694,11.1889035 2.07327917,11.4608621 1.6836307,11.3575914 C1.69742562,11.3789912 0.683313093,11.0904297 0.683313093,11.0904297 L0,12.7764639 L1.79104065,13.2543177 C2.12423213,13.3437445 2.45073516,13.4372971 2.77229153,13.5252822 L2.20277493,15.9727609 L3.57745977,16.3397882 L4.14147233,13.9183074 C4.51702398,14.0273941 4.88149788,14.1280551 5.23830794,14.222925 L4.6761765,16.6329726 L6.05255667,17 L6.62202682,14.5571443 C8.96890527,15.0324878 10.7335869,14.8408343 11.4763529,12.5690277 C12.074876,10.7399306 11.4465568,9.68492892 10.2118649,8.99692973 C11.111159,8.77497847 11.7885269,8.14198243 11.9691381,6.83435895 L11.9686969,6.83403584 L11.9686504,6.83416011 Z" id="Fill-1" fill="#F7931A" mask="url(#mask-2)"></path>
            </g>
        </g>
    </g>
</svg>