<svg width="73" height="88" viewBox="0 0 73 88" fill="none" xmlns="http://www.w3.org/2000/svg">
<path d="M72.2436 77.7348C64.6052 84.1456 54.7536 88 44 88C19.6988 88 0 68.3012 0 44C0 19.6988 19.6988 0 44 0C54.516 0 64.1696 3.6872 71.7332 9.8384L63.404 20.0992C58.102 15.7872 51.348 13.2 44 13.2C27.016 13.2 13.2 27.016 13.2 44C13.2 60.984 27.016 74.8 44 74.8C51.5152 74.8 58.4056 72.094 63.7604 67.606L72.2436 77.7348Z" fill="url(#paint0_linear)"/>
<path d="M60.3329 39.455H56.6193C54.7625 34.6678 50.1117 31.2754 44.6689 31.2754H33.3961V39.455H29.8101V42.183H33.3961V45.8218H29.8101V48.5498H33.3961V56.9098H44.6733C50.1865 56.9098 54.8813 53.4294 56.6941 48.5498H60.3373V45.8218H57.3717C57.4465 45.2586 57.4905 44.6822 57.4905 44.0926C57.4905 43.4458 57.4421 42.8078 57.3497 42.183H60.3373V39.455H60.3329ZM36.1197 34.0034H44.6689C48.5673 34.0034 51.9509 36.2166 53.6273 39.455H36.1197V34.0034ZM44.6689 54.1818H36.1197V48.5454H53.7197C52.0785 51.885 48.6421 54.1818 44.6689 54.1818ZM54.7581 44.0926C54.7581 44.6822 54.7053 45.2586 54.6085 45.8218H36.1197V42.183H54.5733C54.6965 42.799 54.7581 43.437 54.7581 44.0926Z" fill="url(#paint1_linear)"/>
<defs>
<linearGradient id="paint0_linear" x1="36.1218" y1="87.55" x2="36.1218" y2="2.29882" gradientUnits="userSpaceOnUse">
<stop stop-color="#8772E0"/>
<stop offset="1" stop-color="#2BC5A0"/>
</linearGradient>
<linearGradient id="paint1_linear" x1="45.0697" y1="-8.36997" x2="45.0697" y2="-8.24039" gradientUnits="userSpaceOnUse">
<stop stop-color="#3A4B58"/>
<stop offset="1" stop-color="#5B6C7A"/>
</linearGradient>
</defs>
</svg>
