<svg width="73" height="88" viewBox="0 0 73 88" fill="none" xmlns="http://www.w3.org/2000/svg">
<path d="M54.899 43.8861L44.0706 50.0637L33.251 43.8861L44.0706 38.8745L54.899 43.8861Z" fill="#989898"/>
<path d="M44.0706 26.5234V38.8742L33.251 43.8858L44.0706 26.5234Z" fill="#333333"/>
<path d="M44.075 51.6473L33.251 45.4697L44.075 61.4769V51.6473Z" fill="#333333"/>
<path d="M54.8992 43.8858L44.0708 38.8742V26.5234L54.8992 43.8858Z" fill="#838383"/>
<path d="M44.0747 51.6473L54.8943 45.4697L44.0747 61.4769V51.6473Z" fill="#838383"/>
<path d="M72.2436 77.7348C64.6052 84.1456 54.7536 88 44 88C19.6988 88 0 68.3012 0 44C0 19.6988 19.6988 0 44 0C54.516 0 64.1696 3.6872 71.7332 9.8384L63.404 20.0992C58.102 15.7872 51.348 13.2 44 13.2C27.016 13.2 13.2 27.016 13.2 44C13.2 60.984 27.016 74.8 44 74.8C51.5152 74.8 58.4056 72.094 63.7604 67.606L72.2436 77.7348Z" fill="url(#paint0_linear)"/>
<defs>
<linearGradient id="paint0_linear" x1="36.1218" y1="87.55" x2="36.1218" y2="2.29882" gradientUnits="userSpaceOnUse">
<stop stop-color="#8772E0"/>
<stop offset="1" stop-color="#2BC5A0"/>
</linearGradient>
</defs>
</svg>
