<?xml version="1.0" encoding="UTF-8"?>
<svg width="11px" height="8px" viewBox="0 0 11 8" version="1.1" xmlns="http://www.w3.org/2000/svg" xmlns:xlink="http://www.w3.org/1999/xlink">
    <title>down</title>
    <g id="页面-1" stroke="none" stroke-width="1" fill="none" fill-rule="evenodd">
        <g id="信息填写完整" transform="translate(-1464.000000, -467.000000)" fill="#FFFFFF" fill-rule="nonzero">
            <g id="编组-10" transform="translate(1088.000000, 180.000000)">
                <g id="编组-8" transform="translate(252.000000, 164.000000)">
                    <g id="编组-4备份" transform="translate(0.000000, 26.000000)">
                        <g id="down" transform="translate(124.000000, 97.000000)">
                            <path d="M10.9593537,0.629552557 C10.9593537,0.766598011 10.9136719,0.905071023 10.8223082,1.02070312 L5.95576705,7.07068892 C5.83727983,7.21772727 5.65883523,7.30338068 5.46897017,7.30338068 C5.28053267,7.30338068 5.10066051,7.21772727 4.98360085,7.07068892 L0.142755682,1.04639915 C-0.0728053977,0.778018466 -0.0299786932,0.385440341 0.238401989,0.169879261 C0.50678267,-0.0456818182 0.899360795,-0.00285511364 1.11492188,0.265525568 L5.47039773,5.68453125 L9.85014205,0.238401989 C10.0657031,-0.0299786932 10.4582812,-0.0728053977 10.7266619,0.142755682 C10.8794105,0.266953125 10.9593537,0.446825284 10.9593537,0.629552557 Z" id="Shape"></path>
                        </g>
                    </g>
                </g>
            </g>
        </g>
    </g>
</svg>