<?xml version="1.0" encoding="UTF-8"?>
<svg width="24px" height="24px" viewBox="0 0 24 24" version="1.1" xmlns="http://www.w3.org/2000/svg" xmlns:xlink="http://www.w3.org/1999/xlink">
    <title>编组</title>
    <g id="页面-1" stroke="none" stroke-width="1" fill="none" fill-rule="evenodd">
        <g id="选择资产" transform="translate(-1366.000000, -30.000000)">
            <g id="编组" transform="translate(1366.000000, 30.000000)">
                <rect id="矩形" fill="#D8D8D8" opacity="0" x="5" y="5" width="14" height="14"></rect>
                <g id="路径-2" fill="#FFFFFF" fill-rule="nonzero">
                    <path d="M11.9979571,4 C11.3921229,4 10.9009877,4.49110736 10.9009532,5.09694151 L10.9006178,11.0027671 L10.9006178,11.0027671 L5.09694159,11.0028004 C4.49111646,11.0028038 4,11.4939231 4,12.0997482 C4,12.7055031 4.49106133,13.1965644 5.09681618,13.1965644 C5.09685798,13.1965644 5.09689978,13.1965644 5.09694159,13.1965644 L10.9006178,13.1959009 L10.9006178,13.1959009 L10.9009522,18.9023505 C10.9009877,19.5081851 11.3921236,19.9992922 11.9979582,19.9992922 C12.6036801,19.9992922 13.0947147,19.5082575 13.0947147,18.9025356 C13.0947147,18.9024739 13.0947147,18.9024122 13.0947147,18.9023505 L13.0937515,13.1959009 L13.0937515,13.1959009 L18.9012184,13.1965645 C19.5069733,13.1966337 19.9980908,12.7056284 19.99816,12.0998736 C19.99816,12.0998318 19.99816,12.09979 19.99816,12.0997482 C19.99816,11.4939231 19.5070435,11.0028038 18.9012184,11.0028004 L13.0937515,11.0027671 L13.0937515,11.0027671 L13.0947189,5.0969415 C13.0948181,4.49121666 12.6038615,4.00009923 11.9981367,4.00000001 C11.9980768,4 11.9980169,4 11.9979571,4 Z" id="路径" transform="translate(11.999080, 11.999646) rotate(-315.000000) translate(-11.999080, -11.999646) "></path>
                </g>
            </g>
        </g>
    </g>
</svg>