<?xml version="1.0" encoding="UTF-8"?>
<svg width="10px" height="11px" viewBox="0 0 10 11" version="1.1" xmlns="http://www.w3.org/2000/svg" xmlns:xlink="http://www.w3.org/1999/xlink">
    <title>编组</title>
    <g id="页面-1" stroke="none" stroke-width="1" fill="none" fill-rule="evenodd" opacity="0.300899">
        <g id="信息填写完整" transform="translate(-1273.000000, -503.000000)" fill="#FFFFFF" fill-rule="nonzero">
            <g id="编组-10" transform="translate(1088.000000, 180.000000)">
                <g id="编组-11" transform="translate(55.000000, 320.000000)">
                    <g id="编组" transform="translate(130.000000, 3.500000)">
                        <path d="M9.92728896,7.86073052 L9.10064935,7.86073052 L9.10064935,2.07435065 C9.10064935,1.41306818 8.52201299,0.834415584 7.86071429,0.834415584 L2.07433442,0.834415584 L2.07433442,0.00777597403 L7.86071429,0.00777597403 C9.01800325,0.00777597403 9.92728896,0.917061688 9.92728896,2.07433442 L9.92728896,7.86073052 L9.92728896,7.86073052 Z" id="路径"></path>
                        <path d="M7.03409091,9.92728896 L1.24771104,9.92728896 C0.586428571,9.92728896 0.00777597403,9.3486526 0.00777597403,8.6873539 L0.00777597403,2.90097403 C0.00777597403,2.23969156 0.586412338,1.66103896 1.24771104,1.66103896 L7.03409091,1.66103896 C7.69537338,1.66103896 8.27402597,2.23967532 8.27402597,2.90097403 L8.27402597,8.6873539 C8.27402597,9.34863636 7.69538961,9.92728896 7.03409091,9.92728896 Z M1.24771104,2.48767857 C0.999707792,2.48767857 0.834383117,2.65301948 0.834383117,2.90099026 L0.834383117,8.68737013 C0.834383117,8.93537338 0.999724026,9.10069805 1.24771104,9.10069805 L7.03409091,9.10069805 C7.28209416,9.10069805 7.4474026,8.93535714 7.4474026,8.68737013 L7.4474026,2.90099026 C7.4474026,2.65298701 7.28206169,2.48767857 7.03409091,2.48767857 L1.24771104,2.48767857 Z" id="形状"></path>
                    </g>
                </g>
            </g>
        </g>
    </g>
</svg>