<?xml version="1.0" encoding="utf-8"?>
<!-- Generator: Adobe Illustrator 25.0.0, SVG Export Plug-In . SVG Version: 6.00 Build 0)  -->
<svg version="1.1" id="图层_1" xmlns="http://www.w3.org/2000/svg" xmlns:xlink="http://www.w3.org/1999/xlink" x="0px" y="0px"
	 viewBox="0 0 129 129" style="enable-background:new 0 0 129 129;" xml:space="preserve">
<style type="text/css">
	.st0{fill:#3F34FF;}
</style>
<g>
	<path class="st0" d="M52.7,87.2l-0.1-0.1c0,0-0.1,0-0.1,0c-1.7-1.1-3.7-1.7-5.8-1.7c0,0-0.1,0-0.1,0c-2.5-1.5-4.9-3.8-6.7-6.8
		c-1.6-2.8-2.5-5.7-2.7-8.4c1-1.6,1.6-3.6,1.6-5.6c0-2.1-0.6-4-1.6-5.6c0.1-2.8,1-5.8,2.7-8.7c1.7-2.8,3.9-5.1,6.3-6.6
		c0.2,0,0.4,0,0.6,0c5.9,0,10.8-4.8,10.8-10.8c0-5.9-4.8-10.8-10.8-10.8c-5.9,0-10.8,4.8-10.8,10.8c0,2.3,0.7,4.4,1.9,6.1
		c-0.2,2.7-1.1,5.6-2.7,8.4c-1.6,2.7-3.7,4.9-6,6.4c-0.4,0-0.8-0.1-1.2-0.1c-5.9,0-10.8,4.8-10.8,10.8c0,5.9,4.8,10.8,10.8,10.8
		c0.5,0,1.1,0,1.6-0.1c2.1,1.5,4.1,3.5,5.6,6.1c1.7,2.9,2.6,5.9,2.7,8.7c-1.2,1.7-1.9,3.9-1.9,6.1c0,5.9,4.8,10.8,10.8,10.8
		c5.9,0,10.8-4.8,10.8-10.8C57.5,92.4,55.6,89.1,52.7,87.2z"/>
	<path class="st0" d="M82.8,43.7c5.9,0,10.8-4.8,10.8-10.8c0-5.9-4.8-10.8-10.8-10.8C76.9,22.1,72,27,72,32.9
		C72,38.8,76.9,43.7,82.8,43.7z"/>
	<path class="st0" d="M101,53.7c-5.9,0-10.8,4.8-10.8,10.8c0,2.2,0.7,4.3,1.9,6c-0.2,2.7-1,5.7-2.7,8.5c-1.6,2.7-3.7,4.8-5.9,6.3
		c-0.2,0-0.4,0-0.7,0c-2.5-1.5-4.9-3.8-6.7-6.8c-1.6-2.7-2.4-5.5-2.7-8.1c1.1-1.7,1.8-3.7,1.8-5.9c0-5.9-4.8-10.8-10.8-10.8
		c-5.9,0-10.8,4.8-10.8,10.8c0,5.9,4.8,10.8,10.8,10.8c0.5,0,0.9,0,1.4-0.1c2.1,1.5,4.1,3.5,5.6,6.1c1.6,2.8,2.5,5.7,2.7,8.4
		c-1.3,1.8-2.1,4-2.1,6.4c0,5.9,4.8,10.8,10.8,10.8c5.9,0,10.8-4.8,10.8-10.8c0-2.4-0.8-4.6-2.1-6.4c0.2-2.6,1.1-5.3,2.6-7.9
		c1.7-2.9,3.9-5.1,6.3-6.6c0.2,0,0.4,0,0.6,0c5.9,0,10.8-4.8,10.8-10.8C111.8,58.6,106.9,53.7,101,53.7z"/>
</g>
</svg>
