<?xml version="1.0" encoding="UTF-8"?>
<svg width="24px" height="24px" viewBox="0 0 20 20" version="1.1" xmlns="http://www.w3.org/2000/svg" xmlns:xlink="http://www.w3.org/1999/xlink">
    <title>编组 2</title>
    <g id="页面-1" stroke="none" stroke-width="1" fill="none" fill-rule="evenodd">
        <g id="画板" transform="translate(-220.000000, -134.000000)">
            <g id="编组-2" transform="translate(220.000000, 134.000000)">
                <circle id="椭圆形" fill="#FFFFFF" cx="10" cy="10" r="10"></circle>
                <g id="DAI" fill="#F9BF4A" fill-rule="nonzero">
                    <path d="M10,0 C15.5228516,0 20,4.47714844 20,10 C20,15.5228516 15.5228516,20 10,20 C4.47714844,20 0,15.5228516 0,10 C0,4.47714844 4.47714844,0 10,0 Z M10.1578125,5.55554688 L6.98261719,5.55554688 L6.98257813,8.42722656 L6.29628906,8.42722656 L6.29628906,9.2571875 L6.98257813,9.2571875 L6.98257813,10.5021094 L6.29628906,10.5021094 L6.29628906,11.3320898 L6.98257813,11.3320898 L6.98259766,14.4444531 L10.0585938,14.4444531 L10.1001758,14.4443164 C11.469043,14.4361914 12.5218555,14.0255273 13.2585742,13.2243945 C13.7180273,12.722793 14.0308008,12.0897461 14.1934961,11.3320898 L15.1851953,11.3320898 L15.1851953,10.5021289 L14.3082813,10.5021484 C14.3195898,10.3393164 14.3252734,10.1719141 14.3252734,10 C14.3252734,9.74164063 14.31375,9.49398438 14.2908398,9.25716797 L15.1851953,9.25716797 L15.1851953,8.42722656 L14.1532617,8.42720703 C13.9919336,7.76490234 13.7176758,7.21269531 13.3330078,6.77560547 C12.6136328,5.95392578 11.559375,5.55554688 10.1578125,5.55554688 L10.1578125,5.55554688 Z M7.99960938,11.3320703 L13.1665234,11.3321094 C13.0295313,11.8603125 12.8023242,12.2968164 12.4895703,12.6392773 C11.9066211,13.2492969 11.0383984,13.5605273 9.88490234,13.5605273 L7.99960938,13.5605273 L7.99960938,11.3320703 L7.99960938,11.3320703 Z M13.2830078,9.25716797 C13.3080273,9.48974609 13.3206055,9.73736328 13.3206055,10 L13.3205273,10.0346484 C13.3197266,10.1958594 13.3133398,10.3516797 13.3014648,10.5021289 L7.99960938,10.5021289 L7.99960938,9.25716797 L13.2830078,9.25716797 Z M9.9965625,6.43947266 C11.1624414,6.43947266 12.0058594,6.73824219 12.5516016,7.34826172 L12.5667773,7.36554688 C12.810957,7.64625 12.9967773,8.00013672 13.122832,8.42720703 L7.99960938,8.42720703 L7.99960938,6.43947266 L9.9965625,6.43947266 Z" id="形状"></path>
                </g>
            </g>
        </g>
    </g>
</svg>