<?xml version="1.0" encoding="UTF-8"?>
<svg width="20px" height="20px" viewBox="0 0 20 20" version="1.1" xmlns="http://www.w3.org/2000/svg" xmlns:xlink="http://www.w3.org/1999/xlink">
    <title>10</title>
    <g id="页面-1" stroke="none" stroke-width="1" fill="none" fill-rule="evenodd">
        <g id="首页备份-3" transform="translate(-886.000000, -978.000000)">
            <g id="编组-15" transform="translate(854.000000, 978.000000)">
                <g id="10" transform="translate(32.000000, 0.000000)">
                    <g id="discord" transform="translate(3.500000, 2.583333)" fill="#FFFFFF" fill-rule="nonzero">
                        <path d="M8.53946052,6.9889824 C8.53946052,7.43774864 8.20847368,7.8055898 7.78922368,7.8055898 C7.37732896,7.8055898 7.03898684,7.43774864 7.03898684,6.9889824 C7.03898684,6.54021616 7.36997368,6.17237496 7.78922368,6.17237496 C8.20847368,6.17237496 8.53946052,6.54021616 8.53946052,6.9889824 Z M5.10455264,6.17237496 C4.68530264,6.17237496 4.3543158,6.54021616 4.3543158,6.9889824 C4.3543158,7.43774864 4.69265788,7.8055898 5.10455264,7.8055898 C5.52380264,7.8055898 5.85478948,7.43774864 5.85478948,6.9889824 C5.86214472,6.54021616 5.52380264,6.17237496 5.10455264,6.17237496 Z M12.8717105,1.51550566 L12.8717105,14.7136472 C11.0187014,13.0757768 11.6113172,13.6179402 9.45886844,11.6164244 L9.84869736,12.9774368 L1.50782895,12.9774368 C0.676684212,12.9774368 0,12.300609 0,11.4619311 L0,1.51550566 C0,0.676827768 0.676684212,0 1.50782895,0 L11.3638816,0 C12.1950263,0 12.8717105,0.676827768 12.8717105,1.51550566 Z M10.7754605,8.4897744 C10.7754605,6.1208772 9.71630264,4.20074624 9.71630264,4.20074624 C8.65714472,3.40620931 7.64947368,3.428158 7.64947368,3.428158 L7.5465,3.54598896 C8.79689472,3.92854379 9.37796052,4.48030556 9.37796052,4.48030556 C7.63076948,3.52251035 5.57839248,3.52233792 3.88357895,4.26695768 C3.61143421,4.39202368 3.44961842,4.48030556 3.44961842,4.48030556 C3.44961842,4.48030556 4.06010528,3.89911649 5.38405264,3.51656167 L5.3105,3.428158 C5.3105,3.428158 4.30282896,3.40620931 3.24367105,4.20074624 C3.24367105,4.20074624 2.18451316,6.1208772 2.18451316,8.4897744 C2.18451316,8.4897744 2.80235526,9.5565138 4.42786844,9.6080116 C4.42786844,9.6080116 4.70001316,9.27695452 4.92067104,8.99739524 C3.98655263,8.71783592 3.6335,8.12929004 3.6335,8.12929004 C3.74170282,8.20504232 3.92012541,8.30323868 3.93506579,8.31321064 C5.17655376,9.00860288 6.94003556,9.23643452 8.52475,8.57069944 C8.7821842,8.47506076 9.06903948,8.33528112 9.37060528,8.13664688 C9.37060528,8.13664688 9.00284212,8.7399064 8.03930264,9.01210888 C8.25996052,9.29166816 8.52475,9.6080116 8.52475,9.6080116 C10.1502632,9.5565138 10.7754605,8.4897744 10.7754605,8.4897744 Z" id="形状"></path>
                    </g>
                    <rect id="矩形备份-7" x="0" y="0" width="20" height="20"></rect>
                </g>
            </g>
        </g>
    </g>
</svg>