<svg width="31" height="32" viewBox="0 0 31 32" fill="none" xmlns="http://www.w3.org/2000/svg">
<path d="M1.0477 10.2859C-1.30725 16.3984 0.389794 23.3166 5.31359 27.6765C10.2374 32.0363 17.3662 32.9331 23.2335 29.9307L30.7368 26.3818V22.7649L30.6149 22.5082L30.3177 22.6516C30.3177 22.6516 27.386 24.0284 21.5225 26.782C15.7113 29.7289 8.58867 27.6699 5.2889 22.0891L9.42734 20.1334C11.6115 23.3813 15.9025 24.4973 19.4152 22.7309L27.8293 18.9215L30.7521 17.585V10.1435C28.3573 4.10377 22.4743 0.132646 15.9246 0.134766C9.32092 0.135196 3.40264 4.1735 1.0477 10.2859ZM18.8207 17.3924L16.6639 18.3438L11.8433 14.9686L21.675 10.6947C19.2918 8.07481 15.4176 7.39224 12.2689 9.03758C9.12024 10.6829 7.50092 14.2361 8.33747 17.6642L4.17617 19.6313C2.1838 13.4653 5.3923 6.83001 11.4908 4.50435C17.5894 2.17869 24.4602 4.97021 27.1548 10.8684V13.6962L18.8207 17.3924Z" fill="#273951"/>
</svg>
