<?xml version="1.0" encoding="UTF-8"?>
<svg width="16px" height="14px" viewBox="0 0 16 14" version="1.1" xmlns="http://www.w3.org/2000/svg" xmlns:xlink="http://www.w3.org/1999/xlink">
    <title>qiehuan-2</title>
    <g id="页面-1" stroke="none" stroke-width="1" fill="none" fill-rule="evenodd">
        <g id="首页备份-3" transform="translate(-1326.000000, -453.000000)" fill="#FFFFFF" fill-rule="nonzero">
            <g id="编组-9" transform="translate(1108.000000, 200.000000)">
                <g id="qiehuan-2" transform="translate(218.000000, 253.000000)">
                    <path d="M14.918408,5.44838308 C15.2666667,5.44838308 15.5820896,5.24141791 15.7154229,4.92400498 C15.8490505,4.6064039 15.7748585,4.23938986 15.5283582,3.99863184 L11.5781095,0.112064677 C11.4465604,-0.016879182 11.2360267,-0.016879182 11.1044776,0.112064677 L10.3572139,0.84738806 C10.2944869,0.908617755 10.2591185,0.992566811 10.2591185,1.08022388 C10.2591185,1.16788095 10.2944869,1.25183001 10.3572139,1.3130597 L12.8348259,3.75087065 L0.330348259,3.75087065 C0.149769344,3.74976298 0.00218547935,3.89467967 0,4.07524876 L0,5.12201493 C0,5.3011194 0.148258706,5.44738806 0.330348259,5.44738806 L14.9174129,5.44738806 L14.918408,5.44838308 Z M15.5850746,8.5130597 L1.00298507,8.5130597 C0.656479389,8.51234639 0.343091962,8.71879036 0.206965174,9.03743781 C0.0730881856,9.35483964 0.1468797,9.72182418 0.393034826,9.96281095 L4.34328358,13.8493781 C4.47495331,13.9789735 4.68624072,13.9789735 4.81791045,13.8493781 L5.5641791,13.1140547 C5.62690618,13.052825 5.66227453,12.968876 5.66227453,12.8812189 C5.66227453,12.7935618 5.62690618,12.7096128 5.5641791,12.6483831 L3.08656716,10.2105721 L15.5870647,10.2105721 C15.7698416,10.2116797 15.9192074,10.0649812 15.921393,9.88221393 L15.921393,8.84141791 C15.9197512,8.65826079 15.7702258,8.51096052 15.5870647,8.51205851 L15.5850746,8.5130597 Z" id="形状"></path>
                </g>
            </g>
        </g>
    </g>
</svg>