<?xml version="1.0" encoding="UTF-8"?>
<svg width="80px" height="80px" viewBox="0 0 80 80" version="1.1" xmlns="http://www.w3.org/2000/svg" xmlns:xlink="http://www.w3.org/1999/xlink">
    <title>shibai1</title>
    <g id="页面-1" stroke="none" stroke-width="1" fill="none" fill-rule="evenodd">
        <g id="交易失败" transform="translate(-1630.000000, -278.000000)" fill="#DADADA" fill-rule="nonzero">
            <g id="shibai1" transform="translate(1630.002035, 278.000000)">
                <path d="M76.7960719,24.4536335 C74.7849991,19.697265 71.9061253,15.4273329 68.2394875,11.7605124 C64.5727585,8.09378339 60.302735,5.21500089 55.5464579,3.20255759 C50.6193249,1.1198533 45.38922,0.0634713393 39.9993147,0.0634713393 C34.6095008,0.0634713393 29.3793958,1.11994464 24.4536335,3.20255759 C19.6973563,5.21500089 15.4273329,8.09378339 11.7606038,11.7605124 C8.09387482,15.4273329 5.21500089,19.6972649 3.20264902,24.4536335 C1.11994473,29.3793046 0.0634714286,34.6094095 0.0634714286,39.9993147 C0.0634714286,45.3891287 1.11994473,50.6206954 3.20264902,55.5463665 C5.21500098,60.3012731 8.09387482,64.5726671 11.7606038,68.2394876 C15.4273329,71.9062166 19.6973563,74.7850905 24.4536335,76.796072 C29.3793959,78.8801468 34.6095008,79.9365288 39.9993147,79.9365288 C45.1206933,79.9365288 50.1096814,78.9791883 54.8274019,77.0921915 C56.6731922,76.3538571 57.5712357,74.2587269 56.8329013,72.411566 C56.0946583,70.565867 53.9995281,69.6677321 52.1523672,70.4060665 C48.2901134,71.9515346 44.2018183,72.7367401 39.9992235,72.7367401 C21.9493632,72.7367401 7.26316866,58.0505455 7.26316866,39.9992234 C7.26316866,21.9479013 21.9493632,7.26307723 39.9992235,7.26307723 C58.0504542,7.26307723 72.7353696,21.9479927 72.7353696,39.9992234 C72.7353696,48.812 69.2848142,57.0793173 63.0176057,63.2765389 C61.6043454,64.6746324 61.5919195,66.954232 62.9900129,68.3674923 C64.3881064,69.7821232 66.6677974,69.794549 68.0810578,68.3963642 C71.7946579,64.7242445 74.7119972,60.4362218 76.7519419,55.6509814 C78.8648886,50.6936062 79.9365288,45.429056 79.9365288,39.9992234 C79.9365288,34.6095008 78.8801467,29.3793959 76.7960719,24.4536335 Z M53.7117229,26.2869979 C52.305315,24.882052 50.0270859,24.882052 48.620678,26.2869979 L39.9993147,34.9083612 L31.3793219,26.2869979 C29.972914,24.882052 27.6933145,24.882052 26.2869979,26.2869979 C24.882052,27.6934058 24.882052,29.9730968 26.2869979,31.3780428 L34.9083612,39.9994061 L26.2869979,48.620678 C24.8805901,50.0270859 24.8805901,52.3067769 26.2869979,53.7117229 C27.6934058,55.1181307 29.9730054,55.1181307 31.3780428,53.7117229 L39.9993147,45.09173 L48.620678,53.7117229 C50.0270859,55.1181307 52.3066854,55.1181307 53.7117229,53.7117229 C55.1180394,52.3067769 55.1180394,50.0270859 53.7117229,48.620678 L45.0903596,39.9994061 L53.7117229,31.3780428 C55.117948,29.9730968 55.117948,27.6933145 53.7117229,26.2869979 Z" id="形状"></path>
            </g>
        </g>
    </g>
</svg>