<svg width="88" height="88" viewBox="0 0 88 88" fill="none" xmlns="http://www.w3.org/2000/svg">
<path d="M44 88C68.3005 88 88 68.3005 88 44C88 19.6995 68.3005 0 44 0C19.6995 0 0 19.6995 0 44C0 68.3005 19.6995 88 44 88Z" fill="#141414"/>
<path d="M31.2464 38.2886C34.4054 38.2886 36.9664 35.7277 36.9664 32.5686C36.9664 29.4096 34.4054 26.8486 31.2464 26.8486C28.0873 26.8486 25.5264 29.4096 25.5264 32.5686C25.5264 35.7277 28.0873 38.2886 31.2464 38.2886Z" fill="#F28F1D"/>
<path d="M54.1189 38.2886C57.278 38.2886 59.8389 35.7277 59.8389 32.5686C59.8389 29.4096 57.278 26.8486 54.1189 26.8486C50.9599 26.8486 48.3989 29.4096 48.3989 32.5686C48.3989 35.7277 50.9599 38.2886 54.1189 38.2886Z" fill="#8751DE"/>
<path d="M76.9915 38.2886C80.1505 38.2886 82.7115 35.7277 82.7115 32.5686C82.7115 29.4096 80.1505 26.8486 76.9915 26.8486C73.8324 26.8486 71.2715 29.4096 71.2715 32.5686C71.2715 35.7277 73.8324 38.2886 76.9915 38.2886Z" fill="#5214B6"/>
<path d="M31.2464 61.1548C34.4054 61.1548 36.9664 58.5939 36.9664 55.4348C36.9664 52.2758 34.4054 49.7148 31.2464 49.7148C28.0873 49.7148 25.5264 52.2758 25.5264 55.4348C25.5264 58.5939 28.0873 61.1548 31.2464 61.1548Z" fill="#3AAF7F"/>
<path d="M54.1189 61.1548C57.278 61.1548 59.8389 58.5939 59.8389 55.4348C59.8389 52.2758 57.278 49.7148 54.1189 49.7148C50.9599 49.7148 48.3989 52.2758 48.3989 55.4348C48.3989 58.5939 50.9599 61.1548 54.1189 61.1548Z" fill="#9C580B"/>
<path d="M65.5525 49.7213C68.7116 49.7213 71.2725 47.1603 71.2725 44.0013C71.2725 40.8422 68.7116 38.2812 65.5525 38.2812C62.3935 38.2812 59.8325 40.8422 59.8325 44.0013C59.8325 47.1603 62.3935 49.7213 65.5525 49.7213Z" fill="#124863"/>
<path d="M23.8476 62.8255C21.9556 60.9335 20.7896 58.3229 20.7896 55.4335C20.7896 52.5515 21.9556 49.9409 23.8476 48.0489C23.8549 48.0415 23.8623 48.0342 23.8623 48.0342C25.7543 46.1495 28.3649 44.9762 31.2469 44.9762C34.1289 44.9762 36.7323 46.1422 38.6243 48.0269C39.6583 49.0682 41.0956 49.7135 42.6796 49.7135C45.8403 49.7135 48.3996 47.1542 48.3996 43.9935C48.3996 40.8329 45.8403 38.2735 42.6796 38.2735C41.0956 38.2735 39.6656 38.9115 38.6316 39.9529C36.7396 41.8375 34.1289 43.0109 31.2396 43.0109C28.3503 43.0109 25.7396 41.8375 23.8476 39.9529C21.9556 38.0609 20.7823 35.4502 20.7823 32.5609C20.7823 29.6789 21.9483 27.0755 23.8329 25.1835C23.8403 25.1762 23.8476 25.1689 23.8549 25.1615C25.7469 23.2842 28.3576 22.1109 31.2323 22.1109C34.1143 22.1109 36.7249 23.2769 38.6169 25.1615C39.6509 26.2029 41.0883 26.8482 42.6723 26.8482C44.2563 26.8482 45.6863 26.2029 46.7276 25.1615C48.6196 23.2769 51.2303 22.1109 54.1123 22.1109C56.9943 22.1109 59.5976 23.2769 61.4896 25.1615C62.5236 26.2029 63.9609 26.8482 65.5449 26.8482C68.7056 26.8482 71.2649 24.2889 71.2649 21.1282C71.2649 17.9675 68.7056 15.4082 65.5449 15.4082C63.9609 15.4082 62.5309 16.0462 61.4969 17.0875C59.6049 18.9795 56.9943 20.1455 54.1049 20.1455C51.2156 20.1455 48.6049 18.9722 46.7129 17.0802C45.6789 16.0462 44.2489 15.4082 42.6723 15.4082C41.0956 15.4082 39.6656 16.0462 38.6316 17.0802C36.7396 18.9722 34.1289 20.1455 31.2396 20.1455C28.3576 20.1455 25.7396 18.9722 23.8476 17.0875C22.8136 16.0535 21.3836 15.4082 19.7996 15.4082C16.6389 15.4082 14.0796 17.9675 14.0796 21.1282C14.0796 22.7122 14.7249 24.1495 15.7663 25.1835C17.6436 27.0755 18.8096 29.6789 18.8096 32.5609C18.8096 35.4502 17.6363 38.0609 15.7516 39.9529C14.7176 40.9869 14.0723 42.4169 14.0723 44.0009C14.0723 45.5849 14.7176 47.0149 15.7589 48.0489C17.6436 49.9409 18.8096 52.5515 18.8096 55.4335C18.8096 58.3229 17.6363 60.9335 15.7516 62.8255C14.7176 63.8595 14.0723 65.2895 14.0723 66.8735C14.0723 70.0342 16.6316 72.5935 19.7923 72.5935C22.9529 72.5935 25.5123 70.0342 25.5123 66.8735C25.5269 65.2895 24.8816 63.8595 23.8476 62.8255Z" fill="#03D0EF"/>
<path d="M42.68 72.5938C45.839 72.5938 48.4 70.0329 48.4 66.8738C48.4 63.7147 45.839 61.1538 42.68 61.1538C39.5209 61.1538 36.96 63.7147 36.96 66.8738C36.96 70.0329 39.5209 72.5938 42.68 72.5938Z" fill="#1A8056"/>
<path d="M65.5525 72.5938C68.7116 72.5938 71.2725 70.0329 71.2725 66.8738C71.2725 63.7147 68.7116 61.1538 65.5525 61.1538C62.3935 61.1538 59.8325 63.7147 59.8325 66.8738C59.8325 70.0329 62.3935 72.5938 65.5525 72.5938Z" fill="#5214B6"/>
</svg>
