<?xml version="1.0" encoding="UTF-8"?>
<svg width="24px" height="24px" viewBox="0 0 40 40" version="1.1" xmlns="http://www.w3.org/2000/svg" xmlns:xlink="http://www.w3.org/1999/xlink">
    <title>编组 11</title>
    <g id="页面-1" stroke="none" stroke-width="1" fill="none" fill-rule="evenodd">
        <g id="首页备份-4" transform="translate(-1173.000000, -415.000000)" fill-rule="nonzero">
            <g id="编组-9" transform="translate(1108.000000, 200.000000)">
                <g id="编组-10" transform="translate(50.000000, 174.000000)">
                    <g id="编组-4" transform="translate(0.000000, 26.000000)">
                        <g id="编组-11" transform="translate(15.000000, 15.000000)">
                            <g id="usdt-2" fill="#3581E6">
                                <path d="M0,20 C0,31.045695 8.954305,40 20,40 C31.045695,40 40,31.045695 40,20 C40,8.954305 31.045695,0 20,0 C8.954305,0 0,8.954305 0,20 Z" id="路径"></path>
                            </g>
                            <g id="mubiao" transform="translate(8.000000, 8.000000)" fill="#FFFFFF">
                                <path d="M11.1618018,8.54870946 C9.61792338,9.0947089 8.43752454,10.7342673 8.71000429,12.6463053 C8.89200411,14.012344 9.89040312,15.1958628 11.1618018,15.6513824 C13.2501197,16.2883817 15.1569578,15.1958628 15.8833971,13.3748246 C15.974397,13.1018249 16.2463567,12.8288252 16.6098364,12.8288252 C17.3362757,12.7373053 17.8812351,13.3748246 17.6082354,14.1028239 C16.7918362,16.3793816 14.4310386,17.9274201 11.8882411,17.7454202 C8.43752457,17.4724205 5.98624701,14.1938238 6.98464602,10.7342673 C7.43912556,9.00422898 8.80100419,7.54719045 10.5258425,6.90967109 C10.980322,6.72767127 11.4342815,6.90967109 11.6157614,7.36519063 C11.8882411,7.72919028 11.6157614,8.27518972 11.1618018,8.54870946" id="路径"></path>
                                <path d="M22.7239903,10.5699474 C22.3558306,10.6619873 22.1722708,11.030147 22.1722708,11.3977866 L22.1722708,12.042066 C22.1722708,17.8369402 17.3882756,22.5283755 11.5008415,22.2522558 C6.25716675,22.0681759 1.84133115,17.6528603 1.65725135,12.4097056 C1.47317153,6.61483137 6.16512683,1.83135617 11.960521,1.83135617 C12.4207206,1.83135617 12.7888802,1.83135617 13.1565198,1.92339606 C13.5246795,2.01543596 13.8928391,1.73931624 14.0769189,1.37167662 C14.2604788,0.819437182 13.984359,0.267717715 13.4326396,0.175677816 C12.2366408,-0.00840200586 11.040642,0.083637918 9.75260325,0.359757639 C4.14128886,1.46319655 -0.0909868984,6.43075157 0.001573,12.1335859 C0.0936128984,18.6647793 5.42880757,24.0000002 11.960001,24.0000002 C15.1336583,24.006617 18.1792737,22.7489696 20.4235883,20.5050452 C22.667903,18.2611209 23.9260801,15.2157243 23.9200111,12.042066 L23.9200111,11.2131868 C23.8279492,10.6619874 23.2762297,10.2938277 22.7239903,10.5694274 L22.7239903,10.5699474 Z" id="路径"></path>
                                <path d="M15.8264723,0.977084412 C15.5001385,0.977084412 15.1738047,1.14533584 15.0924523,1.48091421 L11.5050918,12.7431279 C11.2596481,13.3310834 11.749611,13.9195011 12.2386495,13.9195011 C12.320464,13.9195011 12.4018164,13.9195011 12.5649832,13.8353754 L23.4088795,11.1461261 C24.1424372,10.8100855 24.0610849,9.80103922 23.3270649,9.54912432 L18.2721268,8.37275109 C17.9462552,8.28862539 17.7830883,8.03671049 17.7012738,7.78433336 L16.6413823,1.64962785 C16.4786776,1.22899931 16.1523438,0.977084412 15.8264723,0.977084412 M15.6637676,5.17874755 L16.2341584,8.12083619 L16.2341584,8.28862539 C16.4791398,9.21308372 17.130883,9.88562716 17.9467174,10.1375421 L19.4956474,10.4735827 L13.5439846,11.902333 L15.6637676,5.17920978" id="形状" transform="translate(17.679862, 7.448293) scale(-1, -1) translate(-17.679862, -7.448293) "></path>
                            </g>
                        </g>
                    </g>
                </g>
            </g>
        </g>
    </g>
</svg>