<?xml version="1.0" encoding="UTF-8"?>
<svg width="20px" height="20px" viewBox="0 0 20 20" version="1.1" xmlns="http://www.w3.org/2000/svg" xmlns:xlink="http://www.w3.org/1999/xlink">
    <title>编组 11</title>
    <g id="页面-1" stroke="none" stroke-width="1" fill="none" fill-rule="evenodd">
        <g id="首页备份-3" transform="translate(-854.000000, -978.000000)">
            <g id="编组-11" transform="translate(854.000000, 978.000000)">
                <path d="M9.79208899,3.10171745 C6.33025579,3.10171745 3.1,6.26916093 3.1,10.1758212 C3.1,13.3018573 5.18068308,15.9528292 7.92216669,16.8881288 C8.26753083,16.9537481 8.44581031,16.7343958 8.44581031,16.5478637 C8.44581031,16.3785899 8.46503352,15.8215907 8.46247996,15.2309755 C6.54299813,15.6592705 6.15166988,14.3958956 6.15166988,14.3958956 C5.83750006,13.5781577 5.39166858,13.3605229 5.39166858,13.3605229 C4.76588249,12.9209388 5.44296453,12.9314111 5.44296453,12.9314111 C6.13530666,12.9805889 6.50167129,13.6593178 6.50167129,13.6593178 C7.11730442,14.741313 8.11703411,14.4277941 8.51036435,14.247315 C8.57275298,13.7905563 8.75166574,13.4779381 8.94878029,13.3017944 C7.41592816,13.1230956 5.80565203,12.5159551 5.80565203,9.80535406 C5.80565203,9.03344287 6.07530817,8.40215335 6.51578738,7.90643787 C6.44420593,7.72767618 6.20839981,7.00925736 6.58242513,6.03426786 C6.58242513,6.03426786 7.16192025,5.84430084 8.48082475,6.75972405 C9.03080069,6.60337303 9.62124549,6.52474721 10.2075229,6.52221292 C10.7937185,6.52474721 11.38496,6.60337303 11.935794,6.75972405 C13.2531255,5.84430084 13.8317422,6.03426786 13.8317422,6.03426786 C14.2065642,7.00925736 13.9716365,7.72857679 13.9000551,7.90643787 C14.3421277,8.40215335 14.610027,9.03344287 14.610027,9.80535406 C14.610027,12.5220919 12.9953792,13.1204775 11.4591563,13.2949037 C11.7067701,13.5142559 11.9273366,13.9450852 11.9273366,14.6048383 C11.9273366,15.5512804 11.9198393,16.3129707 11.9198393,16.5460625 C11.9198393,16.7343121 12.0436156,16.9546487 12.3940868,16.885427 C15.1338953,15.9485775 16.9,13.2975218 16.9,10.1741037 C16.9,6.26744348 13.2371708,3.1 9.79208899,3.1 L9.79208899,3.10171745 Z" id="Fill-1-Copy-10" fill="#FFFFFF"></path>
                <rect id="矩形" x="0" y="0" width="20" height="20"></rect>
            </g>
        </g>
    </g>
</svg>