<?xml version="1.0" encoding="UTF-8"?>
<svg width="24px" height="24px" viewBox="0 0 40 40" version="1.1" xmlns="http://www.w3.org/2000/svg" xmlns:xlink="http://www.w3.org/1999/xlink">
    <title>Huobi ECO Chain </title>
    <defs>
        <circle id="path-1" cx="20" cy="20" r="20"></circle>
    </defs>
    <g id="页面-1" stroke="none" stroke-width="1" fill="none" fill-rule="evenodd">
        <g id="画板" transform="translate(-220.000000, -30.000000)">
            <g id="Huobi-ECO-Chain-" transform="translate(220.000000, 30.000000)">
                <mask id="mask-2" fill="white">
                    <use xlink:href="#path-1"></use>
                </mask>
                <use id="蒙版" fill="#FFFFFF" xlink:href="#path-1"></use>
                <g id="huobi" mask="url(#mask-2)" fill-rule="nonzero">
                    <g transform="translate(12.000000, 7.500000)" id="路径">
                        <path d="M10.4400202,7.55819052 C10.4400202,4.03656754 8.73697077,1.00743448 7.44168347,0.0224798387 C7.44168347,0.0224798387 7.34248992,-0.0334677419 7.34969758,0.107258065 C7.23961694,6.90869456 3.79745464,8.75252016 1.89410282,11.2348034 C-2.48258569,16.962878 1.5874244,23.2428931 5.73316532,24.4045615 C8.05143649,25.0540575 5.19196069,23.2553931 4.8311744,19.456124 C4.38560988,14.8647177 10.4418599,11.3611391 10.4418599,7.55990423" fill="#1D2242"></path>
                        <path d="M12.7149698,9.87283266 C12.7036667,9.86112741 12.6881653,9.85440854 12.6718953,9.8541556 C12.6556253,9.85391666 12.6399279,9.86016391 12.6282762,9.87152218 C12.6240748,9.87559952 12.6204691,9.88024876 12.6175655,9.88533266 C12.5418347,10.7405242 11.6145413,12.5716482 10.4400202,14.2512097 C6.45662802,19.953881 8.72618448,22.7015373 10.0034778,24.1736391 C10.7449597,25.0305696 10.0034778,24.1736391 11.85625,23.2969254 C12.0023942,23.2283266 15.4644405,21.3935484 15.8469254,17.2118448 C16.2076613,13.1616431 13.6314516,10.6088206 12.7149698,9.86743952" fill="#2DA9DE"></path>
                    </g>
                </g>
            </g>
        </g>
    </g>
</svg>