<svg width="64" height="64" viewBox="0 0 64 64" fill="none" xmlns="http://www.w3.org/2000/svg">
<circle cx="32" cy="32" r="32" fill="#333333"/>
<circle cx="32" cy="32" r="26" fill="#333333" stroke="white" stroke-width="4"/>
<path d="M22.9615 41.0378L22.0942 37.1741L29.6244 29.6242L26.7266 26.7264L17.5997 35.8731L19.5316 44.4677L28.1459 46.3996L29.7427 44.8226L26.8449 41.9051L22.9615 41.0378Z" fill="white"/>
<path d="M35.8734 17.5996L34.2767 19.1963L37.1745 22.0941L41.0381 22.9614L41.9055 26.8448L34.3753 34.375L37.273 37.2727L46.3999 28.1458L44.4681 19.5314L35.8734 17.5996Z" fill="white"/>
<path d="M22.0945 26.8452L22.9619 22.9618L26.8453 22.0944L34.3755 29.6246L37.2732 26.7269L28.1463 17.6L19.5319 19.5318L17.6001 28.1462L19.1968 29.7429L22.0945 26.8452Z" fill="white"/>
<path d="M41.9059 37.1745L41.0385 41.0381L37.1749 41.9055L29.6249 34.3753L26.7272 37.273L35.8738 46.4L44.4685 44.4681L46.4003 35.8735L44.8233 34.2767L41.9059 37.1745Z" fill="white"/>
<path d="M34.3752 34.374L46.3998 28.1448L41.038 22.9604L41.9054 26.8438L34.3752 34.374Z" fill="#DDDDDD"/>
<path d="M34.3754 29.6243L28.1463 17.5996L22.9619 22.9614L26.8452 22.0941L34.3754 29.6243Z" fill="#DDDDDD"/>
<path d="M29.6244 29.6245L17.5997 35.8734L22.9615 41.0381L22.0942 37.1744L29.6244 29.6245Z" fill="#DDDDDD"/>
<path d="M29.6242 34.3752L35.8731 46.3999L41.0378 41.0381L37.1741 41.9054L29.6242 34.3752Z" fill="#DDDDDD"/>
<path d="M34.2767 19.1963L37.1744 22.0941L35.8734 17.5996L34.2767 19.1963Z" fill="#DDDDDD"/>
<path d="M19.1964 29.7421L22.0942 26.8444L17.5997 28.1454L19.1964 29.7421Z" fill="#DDDDDD"/>
<path d="M28.1464 46.4L29.7432 44.823L26.8454 41.9055L28.1464 46.4Z" fill="#DDDDDD"/>
<path d="M44.8226 34.2767L41.9052 37.1745L46.3997 35.8734L44.8226 34.2767Z" fill="#DDDDDD"/>
<path d="M34.3752 34.3743L37.2729 37.2721L46.3998 28.1451L34.3752 34.3743Z" fill="white"/>
<path d="M37.273 26.7265L28.1461 17.5996L34.3753 29.6243L37.273 26.7265Z" fill="white"/>
<path d="M26.7266 26.7264L17.5997 35.8731L29.6244 29.6242L26.7266 26.7264Z" fill="white"/>
<path d="M26.7272 37.273L35.8738 46.3999L29.625 34.3752L26.7272 37.273Z" fill="white"/>
<path d="M46.3999 28.1445L44.468 19.5302L37.1744 22.0928L41.038 22.9601L46.3999 28.1445Z" fill="white"/>
<path d="M22.0939 26.8448L22.9612 22.9614L28.1456 17.5996L19.5312 19.5314L22.0939 26.8448Z" fill="white"/>
<path d="M17.5997 35.8724L19.5316 44.4671L26.8449 41.9045L22.9615 41.0371L17.5997 35.8724Z" fill="white"/>
<path d="M41.0383 41.0385L35.8736 46.4003L44.4682 44.4685L41.9056 37.1748L41.0383 41.0385Z" fill="white"/>
<path d="M35.8736 17.5996L37.1746 22.0941L44.4682 19.5314L35.8736 17.5996Z" fill="#EEEEEE"/>
<path d="M19.5316 19.5302L17.5997 28.1445L22.0942 26.8435L19.5316 19.5302Z" fill="#EEEEEE"/>
<path d="M19.5312 44.4682L28.1456 46.4L26.8446 41.9055L19.5312 44.4682Z" fill="#EEEEEE"/>
<path d="M41.9052 37.1735L44.4678 44.4671L46.3997 35.8724L41.9052 37.1735Z" fill="#EEEEEE"/>
<mask id="mask0" mask-type="alpha" maskUnits="userSpaceOnUse" x="32" y="32" width="32" height="32">
</mask>
</svg>
