<?xml version="1.0" encoding="UTF-8"?>
<svg width="180px" height="180px" viewBox="0 0 180 180" version="1.1" xmlns="http://www.w3.org/2000/svg" xmlns:xlink="http://www.w3.org/1999/xlink">
    <title>MDX</title>
    <g id="页面-1" stroke="none" stroke-width="1" fill="none" fill-rule="evenodd">
        <g id="MDX" transform="translate(-55.000000, -45.000000)">
            <g transform="translate(55.000000, 45.000000)">
                <circle id="椭圆形" fill="#1C255F" cx="90" cy="90" r="90"></circle>
                <g id="编组-2" transform="translate(36.000000, 50.000000)">
                    <path d="M0.0133226884,71.4239608 C0.0133226884,78.6685857 6.54166051,84.4642857 14.4815308,84.4642857 L15.8930633,84.4642857 L15.5401802,24.4143944 C15.5401802,22.3215027 16.0695049,20.5505944 17.1281543,18.9406777 C18.1868037,17.3307611 19.7747777,16.2038194 21.8920765,15.2378694 C24.0093752,14.4329111 26.126674,14.1109277 28.0675312,14.4329111 C30.0083884,14.7548944 31.9492455,15.5598527 33.5372196,17.0087777 L59.2976878,38.098686 C59.4741293,38.2596776 60.5327787,39.064636 61.4149865,39.8695943 C64.06161,41.9624859 65.4731425,43.0894276 65.4731425,46.4702526 C65.4731425,49.3681026 64.2380515,51.9439692 62.1207528,53.8758692 C60.003454,55.8077692 57.180389,56.9347109 54.0044409,56.9347109 C50.8284928,56.9347109 48.0054278,55.8077692 45.888129,53.8758692 C43.7708303,51.9439692 42.5357393,49.3681026 42.5357393,46.4702526 C42.5357393,42.9284359 44.1237134,41.6405026 46.9467784,39.3866193 C47.2996615,39.064636 49.4169603,37.2937276 50.2991681,36.649761 L38.4775834,26.990261 L36.3602846,28.7611693 C30.0083884,33.9129026 26.6559987,36.649761 26.6559987,46.6312442 C26.6559987,53.5538859 29.6555052,59.6715692 34.595869,64.1793358 C39.5362327,68.6871025 46.4174537,71.4239608 53.8279993,71.4239608 C61.4149865,71.4239608 68.1197659,68.6871025 73.0601297,64.1793358 C78.0004934,59.6715692 81,53.3928942 81,46.6312442 C81,36.8107526 77.4711687,33.9129026 71.295714,29.2441443 C70.9428309,28.922161 70.5899478,28.6001777 69.3548569,27.6342277 L44.1237134,6.22233612 C40.241999,3.0025028 35.4780768,0.909611149 30.537713,0.265644485 C25.5973493,-0.378322178 20.480544,0.104652819 15.5401802,2.19754448 C10.5998165,4.12944447 6.71810207,7.34927778 4.07147863,11.2130778 C1.42485519,15.0768777 -0.163118874,19.5846444 0.0133226884,24.4143944 L0.0133226884,71.4239608 L0.0133226884,71.4239608 Z" id="路径" fill="#FFFFFF"></path>
                    <path d="M71.1818182,19.7271211 L74.3376623,16.9894798 C75.9155844,15.5401403 77.8441558,14.7349517 79.7727273,14.4128762 C81.7012987,14.0908008 83.8051948,14.4128762 85.9090909,15.2180648 C87.8376623,16.0232534 89.4155844,17.3115552 90.6428571,18.9219325 C91.6948052,20.5323097 92.3961039,22.3037246 92.2207792,24.397215 L91.8701299,84.4642857 L93.2727273,84.4642857 C101.162338,84.4642857 107.474026,78.6669277 107.649351,71.4202302 L108,24.397215 C108,19.5660833 106.597403,14.8959894 103.967532,11.1921217 C101.337662,7.3272164 97.3051948,4.26749966 92.5714286,2.17400926 C87.6623377,0.241556585 82.5779221,-0.402594308 77.6688312,0.241556585 C72.7597403,0.885707477 68.025974,2.97919788 64.1688312,6.19995234 L61.012987,8.93759363 L57.8571429,11.6752349 L69.6038961,21.3374983 L71.1818182,19.7271211 Z" id="路径" fill="#4CA9DC"></path>
                </g>
            </g>
        </g>
    </g>
</svg>