<?xml version="1.0" encoding="UTF-8"?>
<svg width="20px" height="20px" viewBox="0 0 20 20" version="1.1" xmlns="http://www.w3.org/2000/svg" xmlns:xlink="http://www.w3.org/1999/xlink">
    <title>编组 14</title>
    <g id="页面-1" stroke="none" stroke-width="1" fill="none" fill-rule="evenodd">
        <g id="首页备份-3" transform="translate(-1046.000000, -978.000000)">
            <g id="编组-15" transform="translate(854.000000, 978.000000)">
                <g id="编组-14" transform="translate(192.000000, 0.000000)">
                    <g id="4" transform="translate(4.000000, 5.000000)" fill="#FFFFFF" fill-rule="nonzero">
                        <path d="M1.44744936,2.20950297 C1.46218085,2.06376895 1.40630378,1.91976606 1.29700117,1.82177733 L0.184334762,0.486146101 L0.184334762,0.286934112 L3.6395702,0.286934112 L6.3107222,6.1217247 L8.6589238,0.286934112 L11.9536486,0.286934112 L11.9536486,0.486146101 L11.0015524,1.39474539 C10.9196377,1.45713145 10.8789574,1.55943691 10.8957719,1.66076859 L10.8957719,8.338901 C10.8791158,8.44009963 10.9197796,8.54220843 11.0015524,8.60452093 L11.9301657,9.51312023 L11.9301657,9.7123322 L7.2565071,9.7123322 L7.2565071,9.51312023 L8.21865387,8.5822703 C8.31289537,8.48840487 8.31289537,8.46054413 8.31289537,8.3162471 L8.31289537,2.91884283 L5.63576547,9.6901053 L5.27485177,9.6901053 L2.15819023,2.91884283 L2.15819023,7.45702383 C2.13234468,7.64781413 2.19592558,7.8398553 2.33064477,7.97790933 L3.58222033,9.49162867 L3.58222033,9.6904967 L0.0334816941,9.6904967 L0.0334816941,9.4912254 L1.28505725,7.97756537 C1.41911975,7.8398866 1.47875602,7.6462254 1.44709211,7.45702383 L1.44709211,2.20950297 L1.44744936,2.20950297 Z" id="路径"></path>
                    </g>
                    <rect id="矩形备份-3" x="0" y="0" width="20" height="20"></rect>
                </g>
            </g>
        </g>
    </g>
</svg>