<?xml version="1.0" encoding="UTF-8"?>
<svg width="24px" height="24px" viewBox="0 0 24 24" version="1.1" xmlns="http://www.w3.org/2000/svg" xmlns:xlink="http://www.w3.org/1999/xlink">
    <title>metamask</title>
    <g id="页面-1" stroke="none" stroke-width="1" fill="none" fill-rule="evenodd">
        <g id="画板" transform="translate(-40.000000, -100.000000)" fill-rule="nonzero">
            <g id="metamask" transform="translate(40.000000, 100.000000)">
                <path d="M0,11.9533074 C0,18.5549368 5.35167801,23.9066148 11.9533074,23.9066148 C18.5549368,23.9066148 23.9066148,18.5549368 23.9066148,11.9533074 C23.9066148,5.35167801 18.5549368,0 11.9533074,0 C5.35167801,0 0,5.35167801 0,11.9533074 Z" id="路径" fill="#E6E6E6"></path>
                <polygon id="路径" fill="#E2761B" points="13.0121463 9.58281712 14.1255969 6.94442335 19.0332514 5.1108607"></polygon>
                <path d="M11.1059673,9.62517665 L10.046979,6.94442335 L5.13327315,5.1108607 L11.1059673,9.62517665 Z M16.8668638,15.4768436 L15.2632529,17.9336965 L18.6943751,18.8777089 L19.6807471,15.5313058 L16.8668638,15.4768436 Z M4.49788016,15.5313058 L5.47820078,18.8777089 L8.90932296,17.9336965 L7.30571206,15.4768436 L4.49788016,15.5313058 Z" id="形状" fill="#E4761B"></path>
                <path d="M8.71567938,11.3256093 L7.7595642,12.7718848 L11.1664809,12.9231689 L11.0454537,9.26209494 L8.71567938,11.3256093 Z M15.4508451,11.3256093 L13.090814,9.21973541 L13.0121463,12.9231689 L16.4130117,12.7718848 L15.4508451,11.3256093 Z M10.9546833,16.9352218 L9.1876856,15.5555113 L8.90932296,17.9336965 L10.9546833,16.9352218 Z M15.2632529,17.9336965 L14.9788389,15.5555113 L13.2118412,16.9352218 L15.2632529,17.9336965 Z" id="形状" fill="#E4761B"></path>
                <path d="M15.2632529,17.9336965 L13.2118412,16.9352218 L13.375228,18.2725728 L13.3570739,18.8353494 L15.2632529,17.9336965 Z M8.90932296,17.9336965 L10.8155019,18.8353494 L10.8033992,18.2725728 L10.9546833,16.9352218 L8.90932296,17.9336965 Z" id="形状" fill="#D7C1B3"></path>
                <path d="M9.13927471,14.1697494 L10.3434957,13.6190755 L10.8457588,14.6720125 L9.13927471,14.1697494 Z M13.8230288,13.6190755 L15.0333012,14.1697494 L13.3207658,14.6720125 L13.8230288,13.6190755 Z" id="形状" fill="#233447"></path>
                <path d="M9.19978833,15.4768436 L7.30571206,15.5313058 L8.90932296,17.9336965 L9.19978833,15.4768436 Z M15.2632529,17.9336965 L16.8668638,15.5313058 L14.9727875,15.4768436 L15.2632529,17.9336965 Z M13.8290802,13.6190755 L15.0393525,14.1697494 L16.4130117,12.7718848 L13.0121463,12.9231689 L13.3268171,14.6720125 L13.8290802,13.6190755 Z M11.1664809,12.9231689 L7.7595642,12.7718848 L9.13927471,14.1697494 L10.3495471,13.6190755 L10.8457588,14.6720125 L11.1664809,12.9231689 Z" id="形状" fill="#CD6116"></path>
                <path d="M9.1876856,15.5555113 L9.13927471,14.1697494 L7.7595642,12.7718848 L9.1876856,15.5555113 Z M14.9788389,15.5555113 L16.4130117,12.7718848 L15.0393525,14.1697494 L14.9788389,15.5555113 Z M11.1664809,12.9231689 L10.8457588,14.6720125 L11.2451486,16.7355268 L11.3359191,14.0184654 L11.1664809,12.9231689 Z M13.0121463,12.9231689 L12.8487595,14.012414 L12.9213759,16.7355268 L13.3268171,14.6720125 L13.0121463,12.9231689 Z" id="形状" fill="#E4751F"></path>
                <path d="M14.9788389,15.5555113 L15.0393525,14.1697494 L13.3268171,14.6720125 L12.9213759,16.7355268 L13.2118412,16.9352218 L14.9788389,15.5555113 Z M11.2451486,16.7355268 L10.8457588,14.6720125 L9.13927471,14.1697494 L9.1876856,15.5555113 L10.9546833,16.9352218 L11.2451486,16.7355268 Z" id="形状" fill="#F6851B"></path>
                <polygon id="路径" fill="#C0AD9E" points="10.8033992 18.2725728 10.8155019 18.8353494 8.90932296 17.9336965 9.57497276 18.4783191 10.9244265 19.4162802 13.2420981 19.4162802 14.5976031 18.4783191 15.2632529 17.9336965 13.3570739 18.8353494 13.375228 18.2725728 13.223944 18.1394428 10.9425805 18.1394428"></polygon>
                <polygon id="路径" fill="#161616" points="10.8033992 18.2725728 10.9425805 18.1394428 13.223944 18.1394428 13.375228 18.2725728 13.2118412 16.9352218 12.9213759 16.7355268 11.2451486 16.7355268 10.9546833 16.9352218"></polygon>
                <path d="M19.3176654,11.4345339 L19.0150973,11.2166848 L19.4992062,10.7749354 L19.1240218,10.48447 L19.6081307,10.115337 L19.2874086,9.87328249 L19.8017743,7.40432685 L19.0332514,5.1108607 L13.2118412,9.43153307 L15.4508451,11.3256093 L18.6157074,12.2514677 L19.3176654,11.4345339 Z M4.85491051,11.4345339 L5.55081712,12.2514677 L8.71567938,11.3256093 L10.9546833,9.43153307 L5.13327315,5.1108607 L4.37080156,7.40432685 L4.88516732,9.87328249 L4.55839377,10.115337 L5.04250272,10.48447 L4.67336965,10.7749354 L5.1574786,11.2166848 L4.85491051,11.4345339 Z" id="形状" fill="#763D16"></path>
                <path d="M16.8668638,15.5313058 L19.6807471,15.5313058 L18.6157074,12.2514677 L15.4508451,11.3256093 L16.4130117,12.7718848 L14.9788389,15.5555113 L16.8668638,15.5313058 Z M9.1876856,15.5555113 L7.7595642,12.7718848 L8.71567938,11.3256093 L5.55081712,12.2514677 L4.49788016,15.5313058 L7.30571206,15.5313058 L9.1876856,15.5555113 Z M12.9213759,16.7355268 L12.9334786,14.0245167 L13.0121463,12.9231689 L13.2118412,9.43153307 L14.1316482,6.94442335 L10.046979,6.94442335 L10.9546833,9.43153307 L11.1664809,12.9231689 L11.2390973,14.0245167 L11.2451486,16.7355268 L12.9213759,16.7355268 Z" id="形状" fill="#F6851B"></path>
            </g>
        </g>
    </g>
</svg>