<svg width="24px" height="24px" id="图层_1" data-name="图层 1" xmlns="http://www.w3.org/2000/svg" xmlns:xlink="http://www.w3.org/1999/xlink" viewBox="0 0 22 22">
    <defs>
        <style>.cls-1{fill:url(#未命名的渐变_2);}.cls-2,.cls-3,.cls-4{fill:#fff;}.cls-2{opacity:0.2;}.cls-3{opacity:0.3;}</style>
        <linearGradient id="未命名的渐变_2" x1="7.24" y1="21.34" x2="14.76" y2="0.66" gradientUnits="userSpaceOnUse">
            <stop offset="0.3" stop-color="#00af92" />
            <stop offset="0.8" stop-color="#0bc5cb" />
            <stop offset="1" stop-color="#0bb5ce" />
        </linearGradient>
    </defs>
    <title>画板 59 副本 5</title>
    <rect class="cls-1" width="22" height="22" rx="11" />
    <circle class="cls-2" cx="5.94" cy="12.99" r="3.36" />
    <circle class="cls-3" cx="17.08" cy="8.27" r="1.11" />
    <path class="cls-4" d="M18.29,10.32a2.33,2.33,0,0,0-3.8-1.82.78.78,0,1,0,1,1.21A.77.77,0,0,1,16,9.54a.78.78,0,0,1,0,1.56.77.77,0,0,0-.78.77.78.78,0,0,0,.78.78.78.78,0,0,1,0,1.56H8.47a3.31,3.31,0,1,1,2.91-1.73.77.77,0,1,0,1.36.74,4.85,4.85,0,1,0-4.27,2.55H16a2.34,2.34,0,0,0,1.73-3.9A2.3,2.3,0,0,0,18.29,10.32Z" />
    <rect class="cls-1" width="22" height="22" rx="11" />
    <circle class="cls-2" cx="5.94" cy="12.99" r="3.36" />
    <circle class="cls-3" cx="17.08" cy="8.27" r="1.11" />
    <path class="cls-4" d="M18.29,10.32a2.33,2.33,0,0,0-3.8-1.82.78.78,0,1,0,1,1.21A.77.77,0,0,1,16,9.54a.78.78,0,0,1,0,1.56.77.77,0,0,0-.78.77.78.78,0,0,0,.78.78.78.78,0,0,1,0,1.56H8.47a3.31,3.31,0,1,1,2.91-1.73.77.77,0,1,0,1.36.74,4.85,4.85,0,1,0-4.27,2.55H16a2.34,2.34,0,0,0,1.73-3.9A2.3,2.3,0,0,0,18.29,10.32Z" />
</svg>