<?xml version="1.0" encoding="UTF-8"?>
<svg width="32px" height="32px" viewBox="0 0 32 32" version="1.1" xmlns="http://www.w3.org/2000/svg" xmlns:xlink="http://www.w3.org/1999/xlink">
    <title>ONT</title>
    <g id="页面-1" stroke="none" stroke-width="1" fill="none" fill-rule="evenodd">
        <g id="flash-pool" transform="translate(-380.000000, -1022.000000)" fill-rule="nonzero">
            <g id="编组-6" transform="translate(247.000000, 700.000000)">
                <g id="1备份-2" transform="translate(113.000000, 298.000000)">
                    <g id="ONT" transform="translate(20.000000, 24.000000)">
                        <path d="M0.00374634146,15.9843902 C0.00374634146,21.6950629 3.05035381,26.9719421 7.99594139,29.8272785 C12.941529,32.6826148 19.0347442,32.6826148 23.9803318,29.8272785 C28.9259194,26.9719421 31.9725268,21.6950629 31.9725268,15.9843902 C31.9725268,7.15645528 24.8160716,3.55271368e-15 15.9881366,3.55271368e-15 C7.16020162,3.55271368e-15 0.00374634146,7.15645528 0.00374634146,15.9843902 Z" id="路径" fill="#48A3FF"></path>
                        <path d="M10.4460488,10.7664859 L8.28465951,8.60509659 L8.28465951,15.9843902 C8.28465951,18.9690085 10.082602,21.6597261 12.8400317,22.8018852 C15.5974614,23.9440443 18.7713959,23.3127205 20.8818576,21.2022946 L10.4460488,10.7664859 Z M21.5302244,21.2022946 L23.6916137,23.3636839 L23.6916137,15.9843902 C23.6916137,12.999772 21.8936712,10.3090544 19.1362415,9.16689531 C16.3788118,8.0247362 13.2048773,8.65605995 11.0944156,10.7664859 L21.5302244,21.2022946 Z" id="形状" fill="#FFFFFF"></path>
                    </g>
                </g>
            </g>
        </g>
    </g>
</svg>