<?xml version="1.0" encoding="UTF-8"?>
<svg width="16px" height="16px" viewBox="0 0 16 16" version="1.1" xmlns="http://www.w3.org/2000/svg" xmlns:xlink="http://www.w3.org/1999/xlink">
    <!-- Generator: Sketch 63 (92445) - https://sketch.com -->
    <title>Group 123</title>
    <desc>Created with Sketch.</desc>
    <g id="Wrapper" stroke="none" stroke-width="1" fill="none" fill-rule="evenodd">
        <g id="Wrapper-/-Mint/Pending小窗" transform="translate(-1110.000000, -100.000000)">
            <g id="Group-123" transform="translate(1110.000000, 100.000000)">
                <rect id="Rectangle-43-Copy-10" x="0" y="0" width="16" height="16"></rect>
                <g id="sync" fill="#FFFFFF" fill-rule="nonzero">
                    <path d="M15.4578125,8.0015625 C15.1484375,7.978125 14.878125,8.2109375 14.8546875,8.5203125 C14.725,10.2453125 13.9546875,11.846875 12.6859375,13.0296875 C11.409375,14.2203125 9.7453125,14.875 8,14.875 C6.640625,14.875 5.3265625,14.4796875 4.2,13.7296875 C3.209375,13.071875 2.4109375,12.1765625 1.875,11.125 L3.4375,11.125 C3.7484375,11.125 4,10.8734375 4,10.5625 C4,10.2515625 3.7484375,10 3.4375,10 L0.5625,10 C0.2515625,10 0,10.2515625 0,10.5625 L0,13.4375 C0,13.7484375 0.2515625,14 0.5625,14 C0.8734375,14 1.125,13.7484375 1.125,13.4375 L1.125,12.09375 C1.7359375,13.1203125 2.571875,13.9984375 3.5765625,14.6671875 C4.8890625,15.5390625 6.4171875,16 8,16 C10.03125,16 11.96875,15.2375 13.453125,13.853125 C14.93125,12.4765625 15.8265625,10.6125 15.9765625,8.6046875 C16,8.2953125 15.76875,8.025 15.4578125,8.0015625 Z M15.4375,2 C15.1265625,2 14.875,2.2515625 14.875,2.5625 L14.875,3.90625 C14.2640625,2.8796875 13.428125,2.0015625 12.421875,1.3328125 C11.1109375,0.4609375 9.58125,0 8,0 C5.96875,0 4.03125,0.7625 2.546875,2.146875 C1.06875,3.5234375 0.1734375,5.3875 0.021875,7.3953125 C-0.0015625,7.7046875 0.23125,7.975 0.540625,7.9984375 C0.5546875,8 0.56875,8 0.5828125,8 C0.875,8 1.1203125,7.775 1.14375,7.4796875 C1.2734375,5.7546875 2.04375,4.153125 3.3125,2.9703125 C4.590625,1.7796875 6.2546875,1.125 8,1.125 C9.359375,1.125 10.6734375,1.5203125 11.8,2.2703125 C12.790625,2.928125 13.5890625,3.8234375 14.125,4.875 L12.5625,4.875 C12.2515625,4.875 12,5.1265625 12,5.4375 C12,5.7484375 12.2515625,6 12.5625,6 L15.4375,6 C15.7484375,6 16,5.7484375 16,5.4375 L16,2.5625 C16,2.2515625 15.7484375,2 15.4375,2 Z" id="Shape"></path>
                </g>
            </g>
        </g>
    </g>
</svg>