<?xml version="1.0" encoding="UTF-8"?>
<svg width="112px" height="112px" viewBox="0 0 112 112" version="1.1" xmlns="http://www.w3.org/2000/svg" xmlns:xlink="http://www.w3.org/1999/xlink">
    <title>Group 116</title>
    <g id="页面-1" stroke="none" stroke-width="1" fill="none" fill-rule="evenodd">
        <g id="确认资产过程等待中" transform="translate(-1614.000000, -220.000000)">
            <g id="Group-116" transform="translate(1614.002035, 220.000000)">
                <rect id="Rectangle-43-Copy-2" x="0" y="0" width="112" height="112"></rect>
                <g id="loading" fill="#3EC7EB" fill-rule="nonzero">
                    <path d="M56,112 C48.4421875,112 41.103125,110.523438 34.2015625,107.603125 C27.5296875,104.78125 21.546875,100.734375 16.40625,95.59375 C11.265625,90.453125 7.21875,84.4703125 4.396875,77.7984375 C1.4765625,70.896875 0,63.5578125 0,56 C0,53.8234375 1.7609375,52.0625 3.9375,52.0625 C6.1140625,52.0625 7.875,53.8234375 7.875,56 C7.875,62.496875 9.14375,68.796875 11.659375,74.7359375 C14.0875,80.4671875 17.5546875,85.61875 21.9734375,90.0375 C26.3921875,94.45625 31.54375,97.934375 37.275,100.351562 C43.203125,102.85625 49.503125,104.125 56,104.125 C62.496875,104.125 68.796875,102.85625 74.7359375,100.340625 C80.4671875,97.9125 85.61875,94.4453125 90.0375,90.0265625 C94.45625,85.6078125 97.934375,80.45625 100.351562,74.725 C102.85625,68.796875 104.125,62.496875 104.125,56 C104.125,49.503125 102.85625,43.203125 100.340625,37.2640625 C97.9125,31.5328125 94.4453125,26.3921875 90.0265625,21.9625 C85.6078125,17.54375 80.45625,14.065625 74.725,11.6484375 C68.796875,9.14375 62.496875,7.875 56,7.875 C53.8234375,7.875 52.0625,6.1140625 52.0625,3.9375 C52.0625,1.7609375 53.8234375,0 56,0 C63.5578125,0 70.896875,1.4765625 77.7984375,4.396875 C84.4703125,7.21875 90.453125,11.265625 95.59375,16.40625 C100.734375,21.546875 104.770312,27.540625 107.592187,34.2015625 C110.5125,41.103125 111.989063,48.4421875 111.989063,56 C111.989063,63.5578125 110.5125,70.896875 107.592187,77.7984375 C104.78125,84.4703125 100.734375,90.453125 95.59375,95.59375 C90.453125,100.734375 84.459375,104.770313 77.7984375,107.592188 C70.896875,110.523438 63.5578125,112 56,112 Z" id="Shape"></path>
                </g>
            </g>
        </g>
    </g>
</svg>