<?xml version="1.0" encoding="UTF-8"?>
<svg width="144px" height="144px" viewBox="0 0 144 144" version="1.1" xmlns="http://www.w3.org/2000/svg" xmlns:xlink="http://www.w3.org/1999/xlink">
    <!-- Generator: Sketch 56.3 (81716) - https://sketch.com -->
    <title>144 144</title>
    <desc>Created with Sketch.</desc>
    <g id="page-1" stroke="none" stroke-width="1" fill="none" fill-rule="evenodd">
        <g id="1280-760" transform="translate(-373.000000, -252.000000)">
            <g id="intr" transform="translate(114.000000, 269.000000)">
                <g id="1" transform="translate(0.000000, 73.000000)">
                    <g></g>
                </g>
                <g id="1" transform="translate(366.000000, 73.000000)">
                    <g></g>
                </g>
            </g>
            <g id="logo-123" transform="translate(28.000000, 35.000000)">
                <g id="144-144" transform="translate(345.000000, 217.000000)">
                    <circle id="bgColor" fill="#1E3DE4" cx="72" cy="72" r="72"></circle>
                    <g id="logo" transform="translate(38.000000, 19.000000)" fill="#FFFFFF" fill-rule="nonzero">
                        <path d="M17.2877698,25.8122744 L17.2877698,0 L36.5179856,0 C61.0847238,0 81,20.3573053 81,45.4693141 C81,70.5813228 61.0847238,90.9386282 36.5179856,90.9386282 L17.2877698,90.9386282 L17.2877698,83.7906137 L24.2805755,83.7906137 L24.2805755,72.2743682 L17.2877698,72.2743682 L17.2877698,37.3285199 L24.2805755,37.3285199 L24.2805755,25.8122744 L17.2877698,25.8122744 Z M36.5179856,83.7906137 C57.2227038,83.7906137 74.0071942,66.6335835 74.0071942,45.4693141 C74.0071942,24.3050447 57.2227038,7.14801444 36.5179856,7.14801444 L24.2805755,7.14801444 L24.2805755,83.7906137 L36.5179856,83.7906137 Z" id="shap1"></path>
                        <path d="M6.99280576,65.1263538 L6.99280576,110 L0,110 L0,18.6642599 L36.1294964,18.6642599 C50.6120713,18.6642599 62.352518,30.6652915 62.352518,45.4693141 C62.352518,60.2733367 50.6120713,72.2743682 36.1294964,72.2743682 L17.2877698,72.2743682 L17.2877698,65.1263538 L6.99280576,65.1263538 Z M6.99280576,65.1263538 L36.1294964,65.1263538 C46.7500513,65.1263538 55.3597122,56.3255973 55.3597122,45.4693141 C55.3597122,34.6130308 46.7500513,25.8122744 36.1294964,25.8122744 L6.99280576,25.8122744 L6.99280576,65.1263538 Z" id="shap2"></path>
                    </g>
                </g>
            </g>
        </g>
    </g>
</svg>