<?xml version="1.0" encoding="UTF-8"?>
<svg width="537px" height="501px" viewBox="0 0 537 501" version="1.1" xmlns="http://www.w3.org/2000/svg" xmlns:xlink="http://www.w3.org/1999/xlink">
    <title>编组 3备份</title>
    <g id="页面-1" stroke="none" stroke-width="1" fill="none" fill-rule="evenodd" opacity="0.06">
        <g id="编组-3备份">
            <g id="logo-mobile备份" transform="translate(0.000000, 49.414824)">
                <polygon id="Fill-1" fill="#282BDB" points="332.868314 285.300225 365.671258 304.240085 371.875601 307.818885 371.875601 230.161102 332.868314 207.645165"></polygon>
                <polygon id="Fill-1备份" fill="#282BDB" points="283.485046 440.311695 298.794819 448.87022 301.690507 450.487405 301.690507 415.395484 283.485046 405.221006"></polygon>
                <polygon id="Fill-3" fill="#3581E6" points="469.725706 92.1920933 469.725706 184.175972 390.0797 230.166549 390.0797 307.818885 536.979368 222.992607 536.979368 53.3781813"></polygon>
                <polygon id="Fill-3备份-2" fill="#3581E6" points="345.450144 353.050189 345.450144 394.615771 309.492848 415.397946 309.492848 450.487405 375.812744 412.156192 375.812744 335.510998"></polygon>
                <polygon id="Fill-3备份" fill="#3581E6" points="226.553299 139.656333 226.553299 231.640211 146.907293 277.630788 146.907293 355.283125 293.80696 270.456846 293.80696 100.842421"></polygon>
                <polygon id="Fill-4" fill="#3EC7EB" points="146.907293 -0.000544718434 0.0049024659 84.8257334 67.2585639 123.642369 146.907293 77.649068 226.553299 123.642369 293.80696 84.8257334"></polygon>
            </g>
            <g id="logo-mobile备份-2" transform="translate(240.572172, 0.000000)" fill="#3EC7EB">
                <polygon id="Fill-4" points="146.907293 -0.000544718434 0.0049024659 84.8257334 67.2585639 123.642369 146.907293 77.649068 226.553299 123.642369 293.80696 84.8257334"></polygon>
            </g>
            <g id="logo-mobile备份-3" transform="translate(241.872562, 338.475824)" fill="#3EC7EB">
                <polygon id="Fill-4" points="66.3032916 -0.000246146811 0.00221261735 38.3309661 30.355635 55.8713878 66.3032916 35.0879818 102.249719 55.8713878 132.603141 38.3309661"></polygon>
            </g>
        </g>
    </g>
</svg>