<?xml version="1.0" encoding="UTF-8"?>
<svg width="16px" height="16px" viewBox="0 0 10 16" version="1.1" xmlns="http://www.w3.org/2000/svg" xmlns:xlink="http://www.w3.org/1999/xlink">
    <!-- Generator: Sketch 63 (92445) - https://sketch.com -->
    <title>question</title>
    <desc>Created with Sketch.</desc>
    <g id="Wrapper" stroke="none" stroke-width="1" fill="none" fill-rule="evenodd">
        <g id="Wrapper-/-Mint/Pending" transform="translate(-846.000000, -161.000000)" fill="#FFFFFF" fill-rule="nonzero">
            <g id="Connect-wallet" transform="translate(511.000000, 125.000000)">
                <g id="Group-63" transform="translate(328.000000, 32.000000)">
                    <g id="question" transform="translate(7.218750, 4.242188)">
                        <path d="M8.32734375,1.5328125 C7.40859375,0.5671875 6.1125,0.01640625 4.7671875,0.01640625 C3.49453125,0.01875 2.29921875,0.515625 1.39921875,1.41796875 C0.49921875,2.31796875 0.0046875,3.515625 0.0046875,4.78828125 C0.0046875,5.2546875 0.38203125,5.63203125 0.8484375,5.63203125 C1.31484375,5.63203125 1.6921875,5.2546875 1.6921875,4.78828125 C1.6921875,3.09140625 3.07265625,1.70625 4.76953125,1.70390625 C4.771875,1.70390625 4.77421875,1.70390625 4.7765625,1.70390625 C5.65546875,1.70390625 6.50390625,2.06484375 7.1015625,2.6953125 C7.63125,3.253125 7.90078125,3.9609375 7.8609375,4.69453125 C7.828125,5.31796875 7.79765625,5.90625 5.99296875,7.7109375 C4.9078125,8.79609375 3.92578125,9.8765625 3.79453125,11.1984375 C3.75,11.6625 4.0875,12.075 4.5515625,12.121875 C4.5796875,12.1242187 4.6078125,12.1265625 4.6359375,12.1265625 C5.06484375,12.1265625 5.4328125,11.8007812 5.475,11.3648437 C5.54296875,10.6734375 6.18046875,9.91171875 7.1859375,8.90625 C9.28125,6.8109375 9.48984375,5.840625 9.54609375,4.78828125 C9.6140625,3.58359375 9.18046875,2.428125 8.32734375,1.5328125 Z M3.6046875,14.4796875 C3.6046875,15.0388758 4.05799919,15.4921875 4.6171875,15.4921875 C5.17637581,15.4921875 5.6296875,15.0388758 5.6296875,14.4796875 C5.6296875,14.1179561 5.43670611,13.7837025 5.12343751,13.6028367 C4.81016892,13.421971 4.42420608,13.421971 4.11093749,13.6028367 C3.79766889,13.7837025 3.6046875,14.1179561 3.6046875,14.4796875 L3.6046875,14.4796875 Z" id="Shape"></path>
                    </g>
                </g>
            </g>
        </g>
    </g>
</svg>