<?xml version="1.0" encoding="UTF-8"?>
<svg width="32px" height="32px" viewBox="0 0 32 32" version="1.1" xmlns="http://www.w3.org/2000/svg" xmlns:xlink="http://www.w3.org/1999/xlink">
    <title>renBTC</title>
    <g id="页面-1" stroke="none" stroke-width="1" fill="none" fill-rule="evenodd">
        <g id="flash-pool" transform="translate(-209.000000, -1182.000000)" fill-rule="nonzero">
            <g id="编组-6" transform="translate(163.000000, 700.000000)">
                <g id="1备份-4" transform="translate(2.000000, 376.000000)">
                    <g id="renBTC" transform="translate(44.000000, 106.000000)">
                        <path d="M16,0 C7.163444,0 0,7.163444 0,16 C0,24.836556 7.163444,32 16,32 C24.836556,32 32,24.836556 32,16 C32,11.7565362 30.3142906,7.68687356 27.3137085,4.6862915 C24.3131264,1.68570945 20.2434638,0 16,0 Z" id="形状" fill="#87888C"></path>
                        <path d="M14.6934278,5.80243997 L16.7713499,6.43211334 L17.2845337,6.58323494 L16.4502164,9.38528138 L18.2762692,9.92994884 L19.1105864,7.12790241 L21.2514758,7.75757575 L20.4171586,10.5596222 L21.0153483,10.7359308 C23.1574582,11.3763139 24.3770942,13.6296829 23.7418339,15.7733176 L23.7418339,15.7638725 C23.4254548,16.8143816 22.6975295,17.6922074 21.7237308,18.19756 C22.4337451,19.4505627 22.424714,20.9864122 21.7000134,22.2309784 C20.9753129,23.4755446 19.6440425,24.2414652 18.2038568,24.2424243 C17.8104494,24.2418818 17.4191752,24.1846222 17.0421094,24.0724124 L16.4439197,23.8929555 L15.7418339,26.2605273 L13.6103896,25.630854 L14.3187721,23.2506887 L12.4864227,22.7028729 L11.7780402,25.0830382 L9.70011806,24.4533648 L9.18693428,24.2990948 L9.85753641,22.0385675 L7.33884297,21.2861078 L8.05352225,18.883904 L10.5722157,19.639512 L13.1727666,10.9027942 L10.6540732,10.1503345 L11.3687525,7.74813066 L13.8874459,8.50373869 L14.6934278,5.80243997 Z M14.1959858,17.1460055 L13.1916568,20.5179063 L17.6969697,21.8591106 C18.6280457,22.135979 19.6073806,21.6061518 19.8850846,20.6753247 C20.1599239,19.7452397 19.6305216,18.7680981 18.7012987,18.4903581 L14.1959858,17.1460055 Z M15.8551751,11.579693 L14.8508461,14.9484455 L19.356159,16.2927981 C20.0367608,16.4936041 20.7713787,16.2660279 21.2192658,15.715629 C21.667153,15.16523 21.7406815,14.3996924 21.4057458,13.7741047 C21.1882267,13.3564474 20.8113388,13.0442662 20.360488,12.9083038 L15.8551751,11.579693 Z" id="形状结合" fill="#FFFFFF"></path>
                    </g>
                </g>
            </g>
        </g>
    </g>
</svg>