<?xml version="1.0" encoding="UTF-8"?>
<svg width="52px" height="52px" viewBox="0 0 52 52" version="1.1" xmlns="http://www.w3.org/2000/svg" xmlns:xlink="http://www.w3.org/1999/xlink">
    <title>编组</title>
    <g id="页面-1" stroke="none" stroke-width="1" fill="none" fill-rule="evenodd">
        <g id="画板" transform="translate(-328.000000, -235.000000)">
            <g id="编组" transform="translate(328.000000, 234.999600)">
                <g fill="#050101" id="Fill-1">
                    <path d="M25.864,51.73 C11.603,51.73 0,40.127 0,25.866 C0,11.603 11.603,0 25.864,0 C40.126,0 51.73,11.603 51.73,25.866 C51.73,40.127 40.126,51.73 25.864,51.73"></path>
                </g>
                <path d="M25.864,3.993 C13.804,3.993 3.992,13.805 3.992,25.866 C3.992,37.926 13.804,47.738 25.864,47.738 C37.925,47.738 47.737,37.926 47.737,25.866 C47.737,13.805 37.925,3.993 25.864,3.993" id="路径" fill="#FFFFFF"></path>
                <path d="M33.5573,17.2015 C38.4243,18.3735 41.4193,23.2685 40.2473,28.1355 L40.2273,28.2185 L40.2233,28.2375 L39.1083,32.8665 C39.1313,30.4325 37.0233,27.4715 34.5003,26.8635 L32.9183,26.4825 L33.4673,26.6115 L20.0853,23.3885 C15.2183,22.2165 12.2233,17.3215 13.3953,12.4545 L13.4193,12.3525 L33.5573,17.2015 Z" id="Fill-3" fill="#050101"></path>
                <path d="M32.073,29.8221 C36.128,30.7991 38.624,34.8781 37.647,38.9331 L37.631,39.0021 L37.627,39.0181 L36.949,41.8301 C36.788,39.7381 34.746,38.3271 33.773,38.0931 L33.596,38.0511 L33.597,38.0481 L20.846,34.9771 C16.791,34.0011 14.296,29.9221 15.272,25.8661 L15.293,25.7811 L32.073,29.8221 Z" id="Fill-5" fill="#050101"></path>
            </g>
        </g>
    </g>
</svg>