<?xml version="1.0" encoding="UTF-8"?>
<svg width="14px" height="14px" viewBox="0 0 14 14" version="1.1" xmlns="http://www.w3.org/2000/svg" xmlns:xlink="http://www.w3.org/1999/xlink">
    <title>Group 116备份</title>
    <g id="页面-1" stroke="none" stroke-width="1" fill="none" fill-rule="evenodd">
        <g id="交易进度/过程" transform="translate(-1469.000000, -637.000000)" fill="#3EC7EB" fill-rule="nonzero">
            <g id="loading" transform="translate(1469.500000, 637.500000)">
                <path d="M6.5,13 C5.62275391,13 4.77089844,12.8286133 3.96982422,12.4896484 C3.19541016,12.1621094 2.50097656,11.6923828 1.90429687,11.0957031 C1.30761719,10.4990234 0.837890625,9.80458984 0.510351563,9.03017578 C0.171386719,8.22910156 0,7.37724609 0,6.5 C0,6.24736328 0.204394531,6.04296875 0.45703125,6.04296875 C0.709667969,6.04296875 0.9140625,6.24736328 0.9140625,6.5 C0.9140625,7.25410156 1.06132812,7.98535156 1.35332031,8.67470703 C1.63515625,9.33994141 2.03759766,9.93789062 2.55048828,10.4507812 C3.06337891,10.9636719 3.66132812,11.3673828 4.3265625,11.6479492 C5.01464844,11.9386719 5.74589844,12.0859375 6.5,12.0859375 C7.25410156,12.0859375 7.98535156,11.9386719 8.67470703,11.6466797 C9.33994141,11.3648437 9.93789062,10.9624023 10.4507812,10.4495117 C10.9636719,9.93662109 11.3673828,9.33867188 11.6479492,8.6734375 C11.9386719,7.98535156 12.0859375,7.25410156 12.0859375,6.5 C12.0859375,5.74589844 11.9386719,5.01464844 11.6466797,4.32529297 C11.3648437,3.66005859 10.9624023,3.06337891 10.4495117,2.54921875 C9.93662109,2.03632812 9.33867187,1.63261719 8.6734375,1.35205078 C7.98535156,1.06132812 7.25410156,0.9140625 6.5,0.9140625 C6.24736328,0.9140625 6.04296875,0.709667969 6.04296875,0.45703125 C6.04296875,0.204394531 6.24736328,0 6.5,0 C7.37724609,0 8.22910156,0.171386719 9.03017578,0.510351563 C9.80458984,0.837890625 10.4990234,1.30761719 11.0957031,1.90429688 C11.6923828,2.50097656 12.1608398,3.19667969 12.4883789,3.96982422 C12.8273438,4.77089844 12.9987305,5.62275391 12.9987305,6.5 C12.9987305,7.37724609 12.8273438,8.22910156 12.4883789,9.03017578 C12.1621094,9.80458984 11.6923828,10.4990234 11.0957031,11.0957031 C10.4990234,11.6923828 9.80332031,12.1608398 9.03017578,12.4883789 C8.22910156,12.8286133 7.37724609,13 6.5,13 Z" id="Shape"></path>
            </g>
        </g>
    </g>
</svg>