<?xml version="1.0" encoding="UTF-8"?>
<svg width="14px" height="14px" viewBox="0 0 14 14" version="1.1" xmlns="http://www.w3.org/2000/svg" xmlns:xlink="http://www.w3.org/1999/xlink">
    <title>编组 10备份 2</title>
    <g id="页面-1" stroke="none" stroke-width="1" fill="none" fill-rule="evenodd">
        <g id="交易进度备份-2" transform="translate(-1469.000000, -837.000000)">
            <g id="编组-10备份-2" transform="translate(1469.500000, 837.634279)">
                <circle id="椭圆形" stroke="#FFFFFF" opacity="0.3" cx="6.76315943" cy="6.36572125" r="6"></circle>
                <path d="M9.34400384,9.56394654 L6.76329809,6.98324079 L4.18259235,9.56394654 C4.03763278,9.70865764 3.80287031,9.70865764 3.65791074,9.56394654 C3.51307603,9.41896563 3.51307603,9.18406016 3.65791074,9.03907926 L6.23861648,6.45837351 L3.47224846,3.69200549 C3.4024188,3.62252496 3.36315943,3.52807935 3.36315943,3.42957186 C3.36315943,3.33106437 3.4024188,3.23661875 3.47224846,3.16713822 C3.61720803,3.02242712 3.8519705,3.02242712 3.99693007,3.16713822 L6.76329809,5.93350624 L9.52966612,3.16713822 C9.67464702,3.02230351 9.90955249,3.02230351 10.0545334,3.16713822 C10.1993681,3.31211912 10.1993681,3.54702459 10.0545334,3.69200549 L7.28816537,6.45837351 L9.86887111,9.03907926 C10.0137058,9.18406016 10.0137058,9.41896563 9.86887111,9.56394654 C9.79918994,9.63374736 9.70460202,9.67293031 9.60597332,9.67293031 C9.50762137,9.67293031 9.41332985,9.6337105 9.34400384,9.56394654 L9.34400384,9.56394654 Z" id="路径" fill="#FF4141" fill-rule="nonzero"></path>
            </g>
        </g>
    </g>
</svg>