<?xml version="1.0" encoding="UTF-8"?>
<svg width="24px" height="24px" viewBox="0 0 22 22" version="1.1" xmlns="http://www.w3.org/2000/svg" xmlns:xlink="http://www.w3.org/1999/xlink">
    <title>编组 3</title>
    <g id="页面-1" stroke="none" stroke-width="1" fill="none" fill-rule="evenodd">
        <g id="画板" transform="translate(-296.000000, -134.000000)">
            <g id="编组-3" transform="translate(296.000000, 134.000000)">
                <circle id="椭圆形" fill="#FFFFFF" cx="11" cy="11" r="11"></circle>
                <g id="USD" fill="#063474" fill-rule="nonzero" transform="translate(1, 1)">
                    <path d="M18.5166973,4.79422535 C20.6255273,8.23494809 20.4035452,12.6745903 17.961742,15.8933309 C15.5199388,19.1120716 11.4132697,20.6659463 7.52858277,19.6670268 C4.9757885,19.0010805 2.75596738,17.4472057 1.42407471,15.1163936 C0.0921820312,12.7855814 -0.351782188,10.121796 0.314164141,7.56900176 C1.20209258,3.6843148 4.4208332,0.798547344 8.41651121,0.132601016 C12.4121892,-0.533345312 16.4078672,1.35350264 18.5166973,4.79422535 Z M10.6363323,2.68539529 L9.52642178,2.68539529 L9.52642178,4.35026113 C8.63849334,4.46125219 7.97254699,4.79422535 7.52858277,5.34918064 C7.08461855,5.90413594 6.75164539,6.57008227 6.75164537,7.34701965 C6.75164535,8.12395703 6.97362748,8.78990338 7.52858277,9.34485865 C7.97254699,9.89981393 8.86047545,10.3437782 9.85939494,10.6767513 C10.6363323,10.8987334 11.1912876,11.2317066 11.5242608,11.5646798 C11.8572339,11.8976529 11.968225,12.2306261 11.968225,12.7855814 C11.968225,13.3405366 11.7462429,13.7845009 11.4132697,14.117474 C11.0802966,14.4504472 10.5253413,14.4504472 9.85939494,14.4504472 C9.19344861,14.4504472 8.63849332,14.2284651 8.30552016,13.8954919 C7.97254699,13.5625188 7.75056488,13.1185546 7.75056488,12.4526082 L7.75056488,12.2306261 L6.41867221,12.2306261 C6.41867221,13.2295456 6.64065432,14.006483 7.19560959,14.5614383 C7.63957381,15.1163935 8.30552016,15.4493667 9.19344859,15.5603578 L9.41543072,15.5603578 L9.41543072,17.0032415 L10.5253413,17.0032415 L10.5253413,15.5603578 C11.4132697,15.4493667 12.1902071,15.1163936 12.6341713,14.6724293 C13.0781355,14.2284651 13.4111087,13.4515277 13.4111087,12.5635993 C13.4111087,12.008644 13.3001177,11.5646797 13.0781355,11.1207155 C12.8561534,10.6767513 12.6341713,10.5657603 12.1902071,10.2327871 C11.7462429,9.89981391 11.0802965,9.67783182 10.4143502,9.45584971 C9.74840389,9.2338676 9.08245754,8.90089443 8.74948437,8.56792125 C8.41651121,8.23494809 8.1945291,7.90197492 8.1945291,7.34701965 C8.1945291,6.79206438 8.30552016,6.34810014 8.63849332,6.01512697 C8.97146648,5.68215381 9.41543072,5.57116275 10.0813771,5.57116275 C10.6363323,5.57116275 11.0802966,5.79314486 11.4132697,6.23710908 C11.7462429,6.57008225 11.8572339,7.12503752 11.968225,7.67999281 L11.968225,7.90197492 L13.3001177,7.90197492 C13.3001177,6.90305541 13.0781356,6.01512697 12.6341713,5.4601717 C12.1902071,4.90521643 11.6352518,4.57224326 10.8583144,4.46125219 L10.6363323,4.46125219 L10.6363323,2.68539529 Z" id="形状"></path>
                </g>
            </g>
        </g>
    </g>
</svg>