<?xml version="1.0" encoding="UTF-8"?>
<svg width="16px" height="16px" viewBox="0 0 16 16" version="1.1" xmlns="http://www.w3.org/2000/svg" xmlns:xlink="http://www.w3.org/1999/xlink">
    <title>Group 81</title>
    <g id="页面-1" stroke="none" stroke-width="1" fill="none" fill-rule="evenodd" opacity="0.65">
        <g id="首页备份-3" transform="translate(-1219.000000, -1021.000000)">
            <g id="编组-2" transform="translate(1160.000000, 1014.000000)">
                <g id="Group-81" transform="translate(59.000000, 7.000000)">
                    <rect id="Rectangle-37-Copy-17" x="0" y="0" width="16" height="16"></rect>
                    <g id="retweet" transform="translate(1.031250, 1.015625)" fill="#FFFFFF" fill-rule="nonzero">
                        <path d="M4.665625,3.9734375 L10.11875,3.9734375 L8.2578125,5.8359375 C8.0375,6.05625 8.0375,6.4125 8.2578125,6.63125 C8.3671875,6.740625 8.5109375,6.7953125 8.65625,6.7953125 C8.8015625,6.7953125 8.94375,6.740625 9.0546875,6.63125 L11.84375,3.8421875 C11.95,3.7359375 12.0078125,3.59375 12.0078125,3.44375 C12.0078125,3.29375 11.9484375,3.1515625 11.84375,3.0453125 L8.971875,0.175 C8.7515625,-0.0453125 8.3953125,-0.0453125 8.1765625,0.175 C7.95625,0.3953125 7.95625,0.7515625 8.1765625,0.9703125 L10.0546875,2.8484375 L4.665625,2.8484375 C3.41875,2.8484375 2.246875,3.334375 1.365625,4.215625 C0.4859375,5.096875 0,6.26875 0,7.515625 C0,7.8265625 0.2515625,8.078125 0.5625,8.078125 C0.8734375,8.078125 1.125,7.8265625 1.125,7.515625 C1.125,6.5703125 1.49375,5.6796875 2.1625,5.0109375 C2.83125,4.3421875 3.7203125,3.9734375 4.665625,3.9734375 Z M13.3765625,5.90625 C13.065625,5.90625 12.8140625,6.1578125 12.8140625,6.46875 C12.8140625,7.4140625 12.4453125,8.3046875 11.7765625,8.9734375 C11.1078125,9.6421875 10.21875,10.0109375 9.271875,10.0109375 L3.81875,10.0109375 L5.68125,8.1484375 C5.9015625,7.928125 5.9015625,7.571875 5.68125,7.353125 C5.4609375,7.1328125 5.1046875,7.1328125 4.8859375,7.353125 L2.096875,10.1421875 C1.990625,10.2484375 1.9328125,10.390625 1.9328125,10.540625 C1.9328125,10.690625 1.9921875,10.8328125 2.096875,10.9390625 L4.9671875,13.809375 C5.0765625,13.91875 5.2203125,13.9734375 5.365625,13.9734375 C5.5109375,13.9734375 5.653125,13.91875 5.7640625,13.809375 C5.984375,13.5890625 5.984375,13.2328125 5.7640625,13.0140625 L3.884375,11.134375 L9.2734375,11.134375 C10.5203125,11.134375 11.6921875,10.6484375 12.5734375,9.7671875 C13.4546875,8.8859375 13.940625,7.7140625 13.940625,6.4671875 C13.9390625,6.1578125 13.6875,5.90625 13.3765625,5.90625 Z" id="Shape"></path>
                    </g>
                </g>
            </g>
        </g>
    </g>
</svg>