<svg id="Layer_1" data-name="Layer 1" xmlns="http://www.w3.org/2000/svg" xmlns:xlink="http://www.w3.org/1999/xlink" viewBox="0 0 297.17 297.17"><defs><clipPath id="clip-path" transform="translate(-272.81 -148.79)"><rect x="272.81" y="148.79" width="297.17" height="297.17" style="fill:none"/></clipPath></defs><g style="clip-path:url(#clip-path)"><path d="M421.39,446A148.59,148.59,0,1,0,272.81,297.38,148.59,148.59,0,0,0,421.39,446" transform="translate(-272.81 -148.79)"/><path d="M426.81,340.26a3.71,3.71,0,0,1,0-7.42c11.05,0,19.71-9.34,19.71-21.27a3.57,3.57,0,1,1,7.13,0c0,16.09-11.79,28.69-26.84,28.69M468,306.12c0-11.37-7.47-28-22.22-49.32C435,241.2,424.07,228.58,424,228.45a3.37,3.37,0,0,0-5.14,0c-.1.13-11,12.75-21.81,28.35-14.74,21.35-22.22,37.95-22.22,49.32,0,28,20.47,49.91,46.6,49.91S468,334.11,468,306.12" transform="translate(-272.81 -148.79)" style="fill:#fff"/><path d="M388.81,367.42l-67.37-70,67.36-70,12.1,12.42c2-2.65,3.92-5.08,5.6-7.19L392,217.67a4.42,4.42,0,0,0-6.42,0L312.15,294a4.87,4.87,0,0,0,0,6.7l73.42,76.34a4.42,4.42,0,0,0,6.42,0l15.5-15.89a51.35,51.35,0,0,1-9.18-3.52Z" transform="translate(-272.81 -148.79)" style="fill:#fff"/><path d="M530.64,294l-73.4-76.32a4.42,4.42,0,0,0-6.44,0l-14.41,15c1.69,2.12,3.58,4.54,5.6,7.19l12-12.5,67.32,70-67.36,70-9.49-9.75a51.72,51.72,0,0,1-9.17,3.52l15.48,15.9a4.42,4.42,0,0,0,6.42,0l73.42-76.34a4.87,4.87,0,0,0,0-6.7" transform="translate(-272.81 -148.79)" style="fill:#fff"/></g></svg>