<?xml version="1.0" encoding="UTF-8"?>
<svg width="20px" height="20px" viewBox="0 0 20 20" version="1.1" xmlns="http://www.w3.org/2000/svg" xmlns:xlink="http://www.w3.org/1999/xlink">
    <title>编组 12</title>
    <g id="页面-1" stroke="none" stroke-width="1" fill="none" fill-rule="evenodd">
        <g id="首页备份-3" transform="translate(-918.000000, -978.000000)">
            <g id="编组-15" transform="translate(854.000000, 978.000000)">
                <g id="编组-12" transform="translate(64.000000, 0.000000)">
                    <path d="M8.1925297,15.4035586 L8.41928841,11.9648092 L14.6404987,6.33935178 C14.9159079,6.08742404 14.5838505,5.96546129 14.2192567,6.18492755 L6.54002702,11.0544112 L3.21883649,9.99756743 C2.50595265,9.79429618 2.49788379,9.29841912 3.38080701,8.94072364 L16.3173029,3.93317748 C16.9086554,3.66486419 17.4757065,4.07943275 17.2488766,4.989926 L15.045508,15.4035586 C14.8916301,16.1432659 14.4460866,16.3221732 13.8304563,15.9807441 L10.4768242,13.4931423 L8.86483192,15.0621296 C8.67858363,15.2490391 8.52461078,15.4035586 8.1925297,15.4035586 Z" id="Fill-1-Copy-11" fill="#FFFFFF"></path>
                    <rect id="矩形备份" x="0" y="0" width="20" height="20"></rect>
                </g>
            </g>
        </g>
    </g>
</svg>