<?xml version="1.0" encoding="UTF-8"?>
<svg width="24px" height="24px" viewBox="0 0 40 40" version="1.1" xmlns="http://www.w3.org/2000/svg" xmlns:xlink="http://www.w3.org/1999/xlink">
    <title>编组 12</title>
    <g id="页面-1" stroke="none" stroke-width="1" fill="none" fill-rule="evenodd">
        <g id="首页备份-4" transform="translate(-1375.000000, -415.000000)">
            <g id="编组-9" transform="translate(1108.000000, 200.000000)">
                <g id="编组-8" transform="translate(252.000000, 174.000000)">
                    <g id="编组-4备份" transform="translate(0.000000, 26.000000)">
                        <g id="编组-12" transform="translate(15.000000, 15.000000)">
                            <g id="编组" fill="#3EC7EB">
                                <circle id="椭圆形" cx="20" cy="20" r="20"></circle>
                            </g>
                            <g id="mubiao" transform="translate(20.000000, 20.000000) scale(-1, 1) translate(-20.000000, -20.000000) translate(7.000000, 6.000000)" fill="#FFFFFF" fill-rule="nonzero">
                                <path d="M11.1618018,11.5487095 C9.61792338,12.0947089 8.43752454,13.7342673 8.71000429,15.6463053 C8.89200411,17.012344 9.89040312,18.1958628 11.1618018,18.6513824 C13.2501197,19.2883817 15.1569578,18.1958628 15.8833971,16.3748246 C15.974397,16.1018249 16.2463567,15.8288252 16.6098364,15.8288252 C17.3362757,15.7373053 17.8812351,16.3748246 17.6082354,17.1028239 C16.7918362,19.3793816 14.4310386,20.9274201 11.8882411,20.7454202 C8.43752457,20.4724205 5.98624701,17.1938238 6.98464602,13.7342673 C7.43912556,12.004229 8.80100419,10.5471905 10.5258425,9.90967109 C10.980322,9.72767127 11.4342815,9.90967109 11.6157614,10.3651906 C11.8882411,10.7291903 11.6157614,11.2751897 11.1618018,11.5487095" id="路径"></path>
                                <path d="M22.7239903,13.5699474 C22.3558306,13.6619873 22.1722708,14.030147 22.1722708,14.3977866 L22.1722708,15.042066 C22.1722708,20.8369402 17.3882756,25.5283755 11.5008415,25.2522558 C6.25716675,25.0681759 1.84133115,20.6528603 1.65725135,15.4097056 C1.47317153,9.61483137 6.16512683,4.83135617 11.960521,4.83135617 C12.4207206,4.83135617 12.7888802,4.83135617 13.1565198,4.92339606 C13.5246795,5.01543596 13.8928391,4.73931624 14.0769189,4.37167662 C14.2604788,3.81943718 13.984359,3.26771771 13.4326396,3.17567782 C12.2366408,2.99159799 11.040642,3.08363792 9.75260325,3.35975764 C4.14128886,4.46319655 -0.0909868984,9.43075157 0.001573,15.1335859 C0.0936128984,21.6647793 5.42880757,27.0000002 11.960001,27.0000002 C15.1336583,27.006617 18.1792737,25.7489696 20.4235883,23.5050452 C22.667903,21.2611209 23.9260801,18.2157243 23.9200111,15.042066 L23.9200111,14.2131868 C23.8279492,13.6619874 23.2762297,13.2938277 22.7239903,13.5694274 L22.7239903,13.5699474 Z" id="路径"></path>
                                <path d="M17.4521138,0.944081184 C17.12578,0.944081184 16.7994462,1.11233261 16.7180939,1.44791098 L13.1307333,12.7101247 C12.8852896,13.2980802 13.3752525,13.8864979 13.864291,13.8864979 C13.9461055,13.8864979 14.0274579,13.8864979 14.1906248,13.8023722 L25.0345211,11.1131229 C25.7680787,10.7770823 25.6867264,9.768036 24.9527065,9.5161211 L19.8977683,8.33974786 C19.5718967,8.25562216 19.4087299,8.00370726 19.3269153,7.75133013 L18.2670238,1.61662462 C18.1043191,1.19599608 17.7779853,0.944081184 17.4521138,0.944081184 M17.2894091,5.14574432 L17.8597999,8.08783296 L17.8597999,8.25562216 C18.1047814,9.18008049 18.7565245,9.85262393 19.572359,10.1045388 L21.1212889,10.4405794 L15.1696262,11.8693298 L17.2894091,5.14620655" id="形状"></path>
                            </g>
                        </g>
                    </g>
                </g>
            </g>
        </g>
    </g>
</svg>