<?xml version="1.0" encoding="UTF-8"?>
<svg width="20px" height="20px" viewBox="0 0 20 20" version="1.1" xmlns="http://www.w3.org/2000/svg" xmlns:xlink="http://www.w3.org/1999/xlink">
    <title>1</title>
    <g id="页面-1" stroke="none" stroke-width="1" fill="none" fill-rule="evenodd">
        <g id="首页备份-3" transform="translate(-1014.000000, -978.000000)">
            <g id="编组-15" transform="translate(854.000000, 978.000000)">
                <g id="1" transform="translate(160.000000, 0.000000)">
                    <g id="ttww" transform="translate(3.000000, 4.247525)" fill="#FFFFFF" fill-rule="nonzero">
                        <path d="M4.6658458,11.4622298 C2.6369735,11.6190931 1.24702785,11.0028442 0.00280230992,10.0728686 C1.39274796,10.229732 3.2646909,9.7703464 4.18384852,8.82916624 C2.79390285,8.82916624 2.00925612,8.04484944 1.54967731,6.98041952 L2.79390285,6.98041952 C1.54967731,6.50982944 0.608101224,5.5798538 0.608101224,4.03362924 C0.91075068,4.1904926 1.22460938,4.33615144 1.85232676,4.33615144 C0.765030568,3.71990253 0.148522418,1.7030879 0.92195992,0.459385552 C2.31190557,2.0056101 4.01570992,3.40617581 6.82922896,3.55183464 C6.0445822,0.459385552 10.0911175,-1.10924804 11.7949219,0.918771108 C12.5795686,0.761907748 13.0391474,0.459385552 13.6444463,0.134454308 C13.487517,0.918771108 13.0279382,1.37815666 12.4002208,1.68067885 C13.016729,1.68067885 13.487517,1.5238155 13.9470958,1.2212933 C13.8013757,1.83754221 13.1848675,2.46499565 12.7252887,2.76751784 C12.7252887,7.73112272 9.46340012,11.3053664 4.6658458,11.4622298 Z" id="路径"></path>
                    </g>
                    <rect id="矩形" x="0" y="0" width="20" height="20"></rect>
                </g>
            </g>
        </g>
    </g>
</svg>