<?xml version="1.0" encoding="UTF-8"?>
<svg width="24px" height="24px" viewBox="0 0 20 20" version="1.1" xmlns="http://www.w3.org/2000/svg" xmlns:xlink="http://www.w3.org/1999/xlink">
    <title>未知</title>
    <g id="页面-1" stroke="none" stroke-width="1" fill="none" fill-rule="evenodd">
        <g id="画板" transform="translate(-128.000000, -161.000000)">
            <g id="neo-copy" transform="translate(128.000000, 161.000000)">
                <g id="编组" fill="#FFFFFF">
                    <circle id="椭圆形" cx="10" cy="10" r="10"></circle>
                </g>
                <g id="weizhi" transform="translate(6.500000, 2.000000)" fill="#000000" fill-rule="nonzero">
                    <path d="M5.11150122,5.64197713 C7.09254696,5.82955882 6.97130515,10.8347876 6.97130515,10.8347876 C6.78372345,11.6134804 6.13954044,10.8942647 6.13954044,10.8942647 C6.25391952,9.16485294 5.81927901,8.10478758 5.48208946,7.84537581 C5.2455535,7.6628268 5.1558803,8.07733659 5.1558803,8.07733661 C5.00947508,12.2073366 4.59405023,15.4360294 4.34012868,15.4470098 C4.23856004,15.451585 4.03633783,15.4836111 4.0381679,15.2191667 C4.04594568,14.1975327 3.7696058,11.1198203 3.5344424,11.1166176 C3.13503063,11.1120425 3.01927901,14.3087092 2.92457312,15.2617157 C2.90764503,15.4337418 2.65097835,15.4277941 2.65097835,15.4277941 C1.90385416,15.0082516 1.80274305,8.07870915 1.80274305,8.07870915 C1.7537888,7.70263073 1.51176266,7.69439543 1.36352736,8.03570261 C1.13888684,8.39210784 0.849278989,11.014134 0.849279005,11.014134 C0.222939143,11.673415 0.0225469807,11.014134 0.0225469807,11.014134 C-0.1028125,10.7743954 0.586207119,5.91968953 1.71261234,5.73988562 C2.30646855,5.64517974 2.55261234,5.36746732 2.65280842,5.12589869 C1.93542279,4.50733659 1.11555352,3.59642156 0.950390113,2.61870915 C0.611828019,0.617075172 2.13672997,0.0154411765 3.51842933,0.0154411765 C4.90012868,0.0154411765 6.23607639,0.59831699 6.05672999,2.60406863 C5.96659926,3.61060458 5.04927901,4.53387256 4.32594567,5.14785948 C4.47921364,5.38210785 4.81274305,5.61361111 5.11150122,5.64197713 Z M4.32731823,3.12197713 C3.96862542,3.46465687 3.76731823,3.82609477 3.87666463,3.93040849 C3.98601103,4.03426471 4.36529208,3.84210784 4.72352736,3.50034313 C5.08176266,3.15812092 5.28352736,2.79668299 5.17418096,2.6928268 C5.06437703,2.58759804 4.6855535,2.7797549 4.32777574,3.12197713 L4.32731823,3.12197713 Z M2.28359273,3.50125817 C2.63633783,3.84439542 3.01104371,4.03700979 3.11901757,3.9331536 C3.22699143,3.82746732 3.02705679,3.4655719 2.67431169,3.12334967 C2.32110907,2.78066993 1.94640319,2.58805555 1.83888684,2.6928268 C1.73091298,2.79714052 1.92947508,3.15949346 2.28359273,3.50125817 Z" id="形状"></path>
                </g>
            </g>
        </g>
    </g>
</svg>