<?xml version="1.0" encoding="UTF-8"?>
<svg width="24px" height="24px" viewBox="0 0 20 20" version="1.1" xmlns="http://www.w3.org/2000/svg" xmlns:xlink="http://www.w3.org/1999/xlink">
    <title>usdc</title>
    <g id="页面-1" stroke="none" stroke-width="1" fill="none" fill-rule="evenodd">
        <g id="画板" transform="translate(-258.000000, -134.000000)" fill-rule="nonzero">
            <g id="usdc" transform="translate(258.000000, 134.000000)">
                <path d="M0,10 C0,15.5228475 4.4771525,20 10,20 C15.5228475,20 20,15.5228475 20,10 C20,4.4771525 15.5228475,0 10,0 C4.4771525,0 0,4.4771525 0,10 Z" id="路径" fill="#2775C9"></path>
                <path d="M9.4,6.2875 L9.4,5.6625 C9.4,5.33112915 9.66862915,5.0625 10,5.0625 C10.3313708,5.0625 10.6,5.33112915 10.6,5.6625 L10.6,6.285 C11.685625,6.448125 12.43,7.065625 12.62875,7.945 C12.6524952,8.05005817 12.6271716,8.16021338 12.5599314,8.24435492 C12.4926911,8.32849645 12.3908332,8.37749055 12.283125,8.3775 L11.95875,8.3775 C11.69625,8.3775 11.456875,8.225625 11.345625,7.988125 C11.138125,7.548125 10.6475,7.294375 9.994375,7.294375 C9.176875,7.294375 8.625625,7.695625 8.625625,8.296875 C8.625625,8.778125 8.991875,9.059375 9.87875,9.269375 L10.71125,9.46 C12.18,9.79625 12.80125,10.4025 12.80125,11.480625 C12.80125,12.674375 11.9675,13.4825 10.6,13.673125 L10.6,14.395625 C10.6,14.6099844 10.4856407,14.8080606 10.3,14.9152403 C10.1143594,15.0224199 9.88564064,15.0224199 9.69999999,14.9152403 C9.51435934,14.8080606 9.39999999,14.6099844 9.4,14.395625 L9.4,13.684375 C8.18875,13.538125 7.37,12.896875 7.178125,11.915625 C7.16114481,11.8282537 7.18409091,11.7378654 7.2406896,11.6691729 C7.2972883,11.6004805 7.38161904,11.5606696 7.470625,11.560625 L7.963125,11.560625 C8.18625,11.560625 8.389375,11.68875 8.485,11.890625 C8.711875,12.3675 9.2925,12.663125 10.019375,12.663125 C10.891875,12.663125 11.498125,12.231875 11.498125,11.630625 C11.498125,11.109375 11.126875,10.80875 10.215,10.593125 L9.2775,10.3725 C7.94375,10.06625 7.3125,9.425 7.3125,8.3925 C7.3125,7.28 8.151875,6.480625 9.4,6.286875 L9.4,6.2875 Z M2.5,10 C2.5,6.690625 4.66,3.88375 7.6525,2.9025 C7.7620668,2.86645491 7.88227071,2.88509308 7.97577732,2.95262563 C8.06928393,3.02015819 8.12476926,3.12840669 8.125,3.24375 L8.125,3.455625 C8.125,3.7775 7.929375,4.068125 7.63125,4.18875 C5.328125,5.12125 3.705,7.371875 3.705,10 C3.705,12.626875 5.32625,14.876875 7.626875,15.81 C7.9275,15.931875 8.124375,16.22375 8.124375,16.548125 L8.124375,16.724375 C8.12442099,16.8472906 8.06539468,16.9627397 7.96572668,17.034674 C7.86605868,17.1066083 7.73789353,17.1262626 7.62125,17.0875 C4.645,16.096875 2.5,13.298125 2.5,10 Z M17.5,10 C17.5,13.290625 15.365,16.08375 12.4,17.080625 C12.2785972,17.1217379 12.144819,17.1017872 12.0406946,17.0270407 C11.9365703,16.9522943 11.8748781,16.8319253 11.8749998,16.70375 L11.8749998,16.5625 C11.8749998,16.23 12.07625,15.93125 12.38375,15.805 C14.678125,14.869375 16.294375,12.6225 16.294375,10 C16.294375,7.38 14.681875,5.135 12.390625,4.1975 C12.0788581,4.07009106 11.8750972,3.76679616 11.8749998,3.43 L11.8749998,3.30125 C11.8750786,3.17208347 11.9373332,3.05085287 12.0422643,2.97553044 C12.1471953,2.90024116 12.2819705,2.8800052 12.404375,2.92125 C15.366875,3.919375 17.5,6.711875 17.5,10 Z" id="形状" fill="#FFFFFF"></path>
            </g>
        </g>
    </g>
</svg>