<svg xmlns="http://www.w3.org/2000/svg" viewBox="0 0 24 24"><defs><style>.cls-1{fill:#fff;}.cls-2{fill:#3b99fc;}</style></defs><g id="Layer_2" data-name="Layer 2"><g id="Layer_1-2" data-name="Layer 1"><circle class="cls-1" cx="12" cy="12" r="12"/><g id="Page-1"><g id="walletconnect-logo-alt"><path id="WalletConnect" class="cls-2" d="M5.9,8a8.7,8.7,0,0,1,12,0l.4.4a.4.4,0,0,1,0,.6l-1.4,1.3h-.3l-.5-.5a6,6,0,0,0-8.4,0l-.6.6H6.8L5.5,9c-.2-.1-.2-.4,0-.6Zm14.8,2.8L22,12a.5.5,0,0,1,0,.5l-5.5,5.4c-.2.2-.5.2-.6,0h0L12,14.1h-.2L7.9,17.9c-.1.2-.4.2-.6,0h0L1.9,12.5a.3.3,0,0,1,0-.5l1.2-1.2c.1-.2.4-.2.6,0l3.9,3.8h.1l3.9-3.8a.4.4,0,0,1,.6,0h0l3.9,3.8h.1l3.9-3.8C20.3,10.6,20.6,10.6,20.7,10.8Z"/></g></g></g></g></svg>