<?xml version="1.0" encoding="UTF-8"?>
<svg width="32px" height="32px" viewBox="0 0 32 32" version="1.1" xmlns="http://www.w3.org/2000/svg" xmlns:xlink="http://www.w3.org/1999/xlink">
    <title>wing-eth</title>
    <g id="Page-1" stroke="none" stroke-width="1" fill="none" fill-rule="evenodd">
        <g id="画板" transform="translate(-141.000000, -393.000000)">
            <g id="wing-eth" transform="translate(141.000000, 393.000000)">
                <circle id="椭圆形" fill="#FFFFFF" cx="16" cy="16" r="16"></circle>
                <path d="M18.8846477,14.7005034 L17.2881711,17.4689597 L15.6912752,20.2374161 L14.0927013,23 L12.4958054,20.2336409 L14.0922819,17.4651846 L15.6908557,14.6988255 L13.2659396,10.5 L16.4588926,10.5 L17.2881711,11.9337248 L18.8846477,14.7005034 Z M10.0704698,10.5 L6.875,10.5 L10.8972315,17.4668624 L12.4958054,14.7005034 L10.0704698,10.5 Z M23.6405201,11.9337248 L22.8116611,10.5 L19.6182886,10.5 L22.0440436,14.7005034 L20.4450503,17.4689597 L18.8485738,20.2374161 L20.4450503,23 L22.0440436,20.2336409 L23.6405201,17.4651846 L25.2369966,14.6988255 L23.6405201,11.9337248 Z" id="Shape" fill="#000000" fill-rule="nonzero"></path>
                <!-- <g id="编组-2" transform="translate(18.000000, 18.000000)" fill-rule="nonzero">
                    <path d="M6.99533904,-3.75699472e-13 C3.13192255,-3.75699472e-13 -6.21724894e-15,3.13192255 -6.21724894e-15,6.99533904 C-6.21724894e-15,10.8587555 3.13192255,13.9906781 6.99533904,13.9906781 C10.8587555,13.9906781 13.9906781,10.8587555 13.9906781,6.99533904 C13.9906781,3.13192257 10.8587555,-3.75699472e-13 6.99533904,-3.75699472e-13 Z" id="形状" fill="#F6F6F6"></path>
                    <path d="M4.14017294,7.71942481 L6.90465083,9.337984 L6.90465083,11.6299448 L4.14017294,7.71942481 Z M9.84852962,7.71942481 L7.08405173,11.6299448 L7.08405173,9.337984 L9.84852962,7.71942481 Z M6.90465083,5.91541471 L6.90465083,8.76483947 L4.12146734,7.13455068 L6.90465083,5.91541471 Z M7.08405173,5.91547644 L9.86927245,7.1354767 L7.08405173,8.76490121 L7.08405173,5.91547644 Z M7.08405173,2.37240108 L9.81543984,6.91607174 L7.08405173,5.71953065 L7.08405173,2.37240108 Z M6.90465083,2.37375924 L6.90465083,5.71953065 L4.21110606,6.89927991 L6.90465083,2.37375924 Z" id="形状结合" fill="#080808"></path>
                </g> -->
            </g>
        </g>
    </g>
</svg>