<?xml version="1.0" encoding="UTF-8"?>
<svg width="32px" height="32px" viewBox="0 0 32 32" version="1.1" xmlns="http://www.w3.org/2000/svg" xmlns:xlink="http://www.w3.org/1999/xlink">
    <title>YFI</title>
    <g id="WING" stroke="none" stroke-width="1" fill="none" fill-rule="evenodd">
        <g id="画板" transform="translate(-42.000000, -322.000000)" fill-rule="nonzero">
            <g id="YFI" transform="translate(42.000000, 322.000000)">
                <path d="M16.0002757,0.0248091969 C37.3158597,0.383302236 37.3108185,31.6106505 16.0002757,31.9641817 C-5.31530832,31.6044482 -5.3102671,0.377099937 16.0002757,0.0235687559 L16.0002757,0.0248091969 Z" id="路径" fill="#0461BD"></path>
                <polygon id="路径" fill="#FFFFFF" points="15.2440911 9.26871956 16.7400763 9.26871956 16.7400763 22.2240872 15.2440911 22.2240872"></polygon>
                <path d="M22.4580923,11.7806517 L20.5386437,12.4939164 C22.0459717,9.28360507 19.4598203,5.34514356 15.8389563,5.42453301 C9.8373711,5.38235735 8.87197539,14.0928698 14.6542671,15.3817081 L14.6542671,13.6599491 C11.0976788,12.4467789 12.0252652,7.01852454 15.8452579,7.06070019 C18.2587471,7.00860085 20.0168763,9.62225077 19.0313157,11.786854 L18.4566154,9.91127802 L17.0135631,10.3379964 L18.3986412,14.8631957 L22.9949834,13.1575627 L22.4580923,11.7806517 L22.4580923,11.7806517 Z M9.37609846,19.6488916 L11.2968074,18.9356269 C9.78947939,22.1459382 12.3743705,26.0843997 15.9952345,26.0050103 C21.9968197,26.047186 22.9622154,17.3366735 17.1799237,16.0478352 L17.1799237,17.7633919 C20.736512,18.979043 19.8089255,24.4048165 15.9901932,24.3626408 C13.5754437,24.4159806 11.8160541,21.8023307 12.8041354,19.6377274 L13.3775754,21.512063 L14.8206277,21.0841042 L13.4368099,16.5601454 L8.83920739,18.2657783 L9.37609846,19.6488916 L9.37609846,19.6488916 Z" id="形状" fill="#FFFFFF"></path>
            </g>
        </g>
    </g>
</svg>